<svg width="51" height="51" viewBox="0 0 51 51" fill="none" xmlns="http://www.w3.org/2000/svg">
<path d="M8.86957 0H11.087V2.21739H8.86957V0Z" fill="black"/>
<path d="M11.087 0H13.3043V2.21739H11.087V0Z" fill="black"/>
<path d="M13.3043 0H15.5217V2.21739H13.3043V0Z" fill="black"/>
<path d="M15.5217 0H17.7391V2.21739H15.5217V0Z" fill="black"/>
<path d="M17.7391 0H19.9565V2.21739H17.7391V0Z" fill="black"/>
<path d="M19.9565 0H22.1739V2.21739H19.9565V0Z" fill="black"/>
<path d="M22.1739 0H24.3913V2.21739H22.1739V0Z" fill="black"/>
<path d="M24.3913 0H26.6087V2.21739H24.3913V0Z" fill="black"/>
<path d="M26.6087 0H28.8261V2.21739H26.6087V0Z" fill="black"/>
<path d="M28.8261 0H31.0435V2.21739H28.8261V0Z" fill="black"/>
<path d="M31.0435 0H33.2609V2.21739H31.0435V0Z" fill="black"/>
<path d="M33.2609 0H35.4783V2.21739H33.2609V0Z" fill="black"/>
<path d="M35.4783 0H37.6957V2.21739H35.4783V0Z" fill="black"/>
<path d="M37.6957 0H39.913V2.21739H37.6957V0Z" fill="black"/>
<path d="M39.913 0H42.1304V2.21739H39.913V0Z" fill="black"/>
<path d="M6.65217 2.21739L8.86957 2.21739V4.43478H6.65217V2.21739Z" fill="black"/>
<path d="M8.86957 2.21739H11.087V4.43478H8.86957V2.21739Z" fill="black"/>
<path d="M11.087 2.21739H13.3043V4.43478H11.087V2.21739Z" fill="black"/>
<path d="M13.3043 2.21739H15.5217V4.43478H13.3043V2.21739Z" fill="black"/>
<path d="M15.5217 2.21739H17.7391V4.43478H15.5217V2.21739Z" fill="black"/>
<path d="M17.7391 2.21739H19.9565V4.43478H17.7391V2.21739Z" fill="black"/>
<path d="M19.9565 2.21739H22.1739V4.43478H19.9565V2.21739Z" fill="black"/>
<path d="M22.1739 2.21739H24.3913V4.43478H22.1739V2.21739Z" fill="black"/>
<path d="M24.3913 2.21739H26.6087V4.43478H24.3913V2.21739Z" fill="black"/>
<path d="M26.6087 2.21739H28.8261V4.43478H26.6087V2.21739Z" fill="black"/>
<path d="M28.8261 2.21739H31.0435V4.43478H28.8261V2.21739Z" fill="black"/>
<path d="M31.0435 2.21739H33.2609V4.43478H31.0435V2.21739Z" fill="black"/>
<path d="M33.2609 2.21739H35.4783V4.43478H33.2609V2.21739Z" fill="black"/>
<path d="M35.4783 2.21739H37.6957V4.43478H35.4783V2.21739Z" fill="black"/>
<path d="M37.6957 2.21739H39.913V4.43478H37.6957V2.21739Z" fill="black"/>
<path d="M39.913 2.21739H42.1304V4.43478H39.913V2.21739Z" fill="black"/>
<path d="M42.1304 2.21739L44.3478 2.21739V4.43478H42.1304V2.21739Z" fill="black"/>
<path d="M44.3478 2.21739H46.5652V4.43478H44.3478V2.21739Z" fill="black"/>
<path d="M4.43478 4.43478L6.65217 4.43478V6.65217H4.43478V4.43478Z" fill="black"/>
<path d="M6.65217 4.43478H8.86957V6.65217H6.65217V4.43478Z" fill="black"/>
<path d="M8.86957 4.43478H11.087V6.65217H8.86957V4.43478Z" fill="black"/>
<path d="M39.913 4.43478H42.1304V6.65217H39.913V4.43478Z" fill="black"/>
<path d="M42.1304 4.43478H44.3478V6.65217H42.1304V4.43478Z" fill="black"/>
<path d="M44.3478 4.43478H46.5652V6.65217H44.3478V4.43478Z" fill="black"/>
<path d="M46.5652 4.43478L48.7826 4.43478V6.65217H46.5652V4.43478Z" fill="black"/>
<path d="M2.21739 6.65218L4.43478 6.65217V8.86957H2.21739V6.65218Z" fill="black"/>
<path d="M4.43478 6.65217H6.65217V8.86957H4.43478V6.65217Z" fill="black"/>
<path d="M44.3478 6.65217H46.5652V8.86957H44.3478V6.65217Z" fill="black"/>
<path d="M46.5652 6.65217H48.7826V8.86957H46.5652V6.65217Z" fill="black"/>
<path d="M2.21739 8.86957H4.43478V11.087H2.21739V8.86957Z" fill="black"/>
<path d="M4.43478 8.86957H6.65217V11.087H4.43478V8.86957Z" fill="black"/>
<path d="M37.6957 8.86957H39.913V11.087H37.6957V8.86957Z" fill="black"/>
<path d="M39.913 8.86957H42.1304V11.087H39.913V8.86957Z" fill="black"/>
<path d="M44.3478 8.86957H46.5652V11.087H44.3478V8.86957Z" fill="black"/>
<path d="M46.5652 8.86957H48.7826V11.087H46.5652V8.86957Z" fill="black"/>
<path d="M48.7826 8.86957L51 8.86957V11.087H48.7826V8.86957Z" fill="black"/>
<path d="M0 11.087L2.21739 11.087V13.3044H0V11.087Z" fill="black"/>
<path d="M2.21739 11.087H4.43478V13.3044H2.21739V11.087Z" fill="black"/>
<path d="M37.6957 11.087H39.913V13.3044H37.6957V11.087Z" fill="black"/>
<path d="M39.913 11.087H42.1304V13.3044H39.913V11.087Z" fill="black"/>
<path d="M46.5652 11.087H48.7826V13.3044H46.5652L46.5652 11.087Z" fill="black"/>
<path d="M48.7826 11.087H51V13.3044H48.7826V11.087Z" fill="black"/>
<path d="M0 13.3044H2.21739V15.5217H0V13.3044Z" fill="black"/>
<path d="M2.21739 13.3044H4.43478V15.5217H2.21739V13.3044Z" fill="black"/>
<path d="M17.7391 13.3044H19.9565V15.5217H17.7391V13.3044Z" fill="black"/>
<path d="M19.9565 13.3044H22.1739V15.5217H19.9565V13.3044Z" fill="black"/>
<path d="M22.1739 13.3044H24.3913V15.5217H22.1739V13.3044Z" fill="black"/>
<path d="M24.3913 13.3044H26.6087V15.5217H24.3913V13.3044Z" fill="black"/>
<path d="M26.6087 13.3044H28.8261V15.5217H26.6087V13.3044Z" fill="black"/>
<path d="M28.8261 13.3044H31.0435V15.5217H28.8261V13.3044Z" fill="black"/>
<path d="M31.0435 13.3044H33.2609V15.5217H31.0435V13.3044Z" fill="black"/>
<path d="M46.5652 13.3044H48.7826V15.5217H46.5652V13.3044Z" fill="black"/>
<path d="M48.7826 13.3044H51V15.5217H48.7826V13.3044Z" fill="black"/>
<path d="M0 15.5217H2.21739V17.7391H0V15.5217Z" fill="black"/>
<path d="M2.21739 15.5217H4.43478V17.7391H2.21739V15.5217Z" fill="black"/>
<path d="M15.5217 15.5217L17.7391 15.5217V17.7391H15.5217V15.5217Z" fill="black"/>
<path d="M17.7391 15.5217H19.9565V17.7391H17.7391V15.5217Z" fill="black"/>
<path d="M19.9565 15.5217H22.1739V17.7391H19.9565V15.5217Z" fill="black"/>
<path d="M22.1739 15.5217H24.3913V17.7391H22.1739V15.5217Z" fill="black"/>
<path d="M24.3913 15.5217H26.6087V17.7391H24.3913V15.5217Z" fill="black"/>
<path d="M26.6087 15.5217H28.8261V17.7391H26.6087V15.5217Z" fill="black"/>
<path d="M28.8261 15.5217H31.0435V17.7391H28.8261V15.5217Z" fill="black"/>
<path d="M31.0435 15.5217H33.2609V17.7391H31.0435V15.5217Z" fill="black"/>
<path d="M33.2609 15.5217L35.4783 15.5217V17.7391H33.2609V15.5217Z" fill="black"/>
<path d="M46.5652 15.5217H48.7826V17.7391H46.5652V15.5217Z" fill="black"/>
<path d="M48.7826 15.5217H51V17.7391H48.7826V15.5217Z" fill="black"/>
<path d="M0 17.7391H2.21739V19.9565H0V17.7391Z" fill="black"/>
<path d="M2.21739 17.7391H4.43478V19.9565H2.21739V17.7391Z" fill="black"/>
<path d="M13.3043 17.7391L15.5217 17.7391V19.9565H13.3043V17.7391Z" fill="black"/>
<path d="M15.5217 17.7391H17.7391V19.9565H15.5217V17.7391Z" fill="black"/>
<path d="M17.7391 17.7391H19.9565V19.9565H17.7391V17.7391Z" fill="black"/>
<path d="M31.0435 17.7391H33.2609V19.9565H31.0435V17.7391Z" fill="black"/>
<path d="M33.2609 17.7391H35.4783V19.9565H33.2609V17.7391Z" fill="black"/>
<path d="M35.4783 17.7391L37.6957 17.7391V19.9565H35.4783V17.7391Z" fill="black"/>
<path d="M46.5652 17.7391H48.7826V19.9565H46.5652V17.7391Z" fill="black"/>
<path d="M48.7826 17.7391H51V19.9565H48.7826V17.7391Z" fill="black"/>
<path d="M0 19.9565H2.21739V22.1739H0V19.9565Z" fill="black"/>
<path d="M2.21739 19.9565H4.43478V22.1739H2.21739V19.9565Z" fill="black"/>
<path d="M13.3043 19.9565H15.5217V22.1739H13.3043V19.9565Z" fill="black"/>
<path d="M15.5217 19.9565H17.7391V22.1739H15.5217V19.9565Z" fill="black"/>
<path d="M33.2609 19.9565H35.4783V22.1739H33.2609V19.9565Z" fill="black"/>
<path d="M35.4783 19.9565H37.6957V22.1739H35.4783V19.9565Z" fill="black"/>
<path d="M46.5652 19.9565H48.7826V22.1739H46.5652V19.9565Z" fill="black"/>
<path d="M48.7826 19.9565H51V22.1739H48.7826V19.9565Z" fill="black"/>
<path d="M0 22.1739H2.21739V24.3913H0V22.1739Z" fill="black"/>
<path d="M2.21739 22.1739H4.43478V24.3913H2.21739V22.1739Z" fill="black"/>
<path d="M13.3043 22.1739H15.5217V24.3913H13.3043V22.1739Z" fill="black"/>
<path d="M15.5217 22.1739H17.7391V24.3913H15.5217V22.1739Z" fill="black"/>
<path d="M33.2609 22.1739H35.4783V24.3913H33.2609V22.1739Z" fill="black"/>
<path d="M35.4783 22.1739H37.6957V24.3913H35.4783V22.1739Z" fill="black"/>
<path d="M46.5652 22.1739H48.7826V24.3913H46.5652V22.1739Z" fill="black"/>
<path d="M48.7826 22.1739H51V24.3913H48.7826V22.1739Z" fill="black"/>
<path d="M0 24.3913H2.21739V26.6087H0V24.3913Z" fill="black"/>
<path d="M2.21739 24.3913H4.43478V26.6087H2.21739V24.3913Z" fill="black"/>
<path d="M13.3043 24.3913H15.5217V26.6087H13.3043V24.3913Z" fill="black"/>
<path d="M15.5217 24.3913H17.7391V26.6087H15.5217V24.3913Z" fill="black"/>
<path d="M33.2609 24.3913H35.4783V26.6087H33.2609V24.3913Z" fill="black"/>
<path d="M35.4783 24.3913H37.6957V26.6087H35.4783V24.3913Z" fill="black"/>
<path d="M46.5652 24.3913H48.7826V26.6087H46.5652V24.3913Z" fill="black"/>
<path d="M48.7826 24.3913H51V26.6087H48.7826V24.3913Z" fill="black"/>
<path d="M0 26.6087H2.21739V28.8261H0V26.6087Z" fill="black"/>
<path d="M2.21739 26.6087H4.43478V28.8261H2.21739V26.6087Z" fill="black"/>
<path d="M13.3043 26.6087H15.5217V28.8261H13.3043V26.6087Z" fill="black"/>
<path d="M15.5217 26.6087H17.7391V28.8261H15.5217V26.6087Z" fill="black"/>
<path d="M33.2609 26.6087H35.4783V28.8261H33.2609V26.6087Z" fill="black"/>
<path d="M35.4783 26.6087H37.6957V28.8261H35.4783V26.6087Z" fill="black"/>
<path d="M46.5652 26.6087H48.7826V28.8261H46.5652V26.6087Z" fill="black"/>
<path d="M48.7826 26.6087H51V28.8261H48.7826V26.6087Z" fill="black"/>
<path d="M0 28.8261H2.21739V31.0435H0V28.8261Z" fill="black"/>
<path d="M2.21739 28.8261H4.43478V31.0435H2.21739V28.8261Z" fill="black"/>
<path d="M13.3043 28.8261H15.5217V31.0435H13.3043V28.8261Z" fill="black"/>
<path d="M15.5217 28.8261H17.7391V31.0435H15.5217V28.8261Z" fill="black"/>
<path d="M33.2609 28.8261H35.4783V31.0435H33.2609V28.8261Z" fill="black"/>
<path d="M35.4783 28.8261H37.6957V31.0435H35.4783V28.8261Z" fill="black"/>
<path d="M46.5652 28.8261H48.7826V31.0435H46.5652V28.8261Z" fill="black"/>
<path d="M48.7826 28.8261H51V31.0435H48.7826V28.8261Z" fill="black"/>
<path d="M0 31.0435H2.21739V33.2609H0V31.0435Z" fill="black"/>
<path d="M2.21739 31.0435H4.43478V33.2609H2.21739V31.0435Z" fill="black"/>
<path d="M15.5217 31.0435H17.7391V33.2609H15.5217V31.0435Z" fill="black"/>
<path d="M17.7391 31.0435L19.9565 31.0435V33.2609H17.7391V31.0435Z" fill="black"/>
<path d="M31.0435 31.0435L33.2609 31.0435V33.2609H31.0435V31.0435Z" fill="black"/>
<path d="M33.2609 31.0435H35.4783V33.2609H33.2609V31.0435Z" fill="black"/>
<path d="M35.4783 31.0435H37.6957V33.2609H35.4783V31.0435Z" fill="black"/>
<path d="M46.5652 31.0435H48.7826V33.2609H46.5652V31.0435Z" fill="black"/>
<path d="M48.7826 31.0435H51V33.2609H48.7826V31.0435Z" fill="black"/>
<path d="M0 33.2609H2.21739V35.4783H0V33.2609Z" fill="black"/>
<path d="M2.21739 33.2609H4.43478V35.4783H2.21739V33.2609Z" fill="black"/>
<path d="M15.5217 33.2609H17.7391V35.4783H15.5217V33.2609Z" fill="black"/>
<path d="M17.7391 33.2609H19.9565V35.4783H17.7391V33.2609Z" fill="black"/>
<path d="M19.9565 33.2609L22.1739 33.2609V35.4783H19.9565V33.2609Z" fill="black"/>
<path d="M22.1739 33.2609H24.3913V35.4783H22.1739V33.2609Z" fill="black"/>
<path d="M24.3913 33.2609H26.6087V35.4783H24.3913V33.2609Z" fill="black"/>
<path d="M26.6087 33.2609H28.8261V35.4783H26.6087V33.2609Z" fill="black"/>
<path d="M28.8261 33.2609L31.0435 33.2609V35.4783H28.8261V33.2609Z" fill="black"/>
<path d="M31.0435 33.2609H33.2609V35.4783H31.0435V33.2609Z" fill="black"/>
<path d="M33.2609 33.2609H35.4783V35.4783H33.2609V33.2609Z" fill="black"/>
<path d="M46.5652 33.2609H48.7826V35.4783H46.5652V33.2609Z" fill="black"/>
<path d="M48.7826 33.2609H51V35.4783H48.7826V33.2609Z" fill="black"/>
<path d="M0 35.4783H2.21739V37.6957H0V35.4783Z" fill="black"/>
<path d="M2.21739 35.4783H4.43478V37.6957H2.21739V35.4783Z" fill="black"/>
<path d="M19.9565 35.4783H22.1739V37.6957H19.9565V35.4783Z" fill="black"/>
<path d="M22.1739 35.4783H24.3913V37.6957H22.1739V35.4783Z" fill="black"/>
<path d="M24.3913 35.4783H26.6087V37.6957H24.3913V35.4783Z" fill="black"/>
<path d="M26.6087 35.4783H28.8261V37.6957H26.6087V35.4783Z" fill="black"/>
<path d="M28.8261 35.4783H31.0435V37.6957H28.8261V35.4783Z" fill="black"/>
<path d="M31.0435 35.4783H33.2609V37.6957H31.0435V35.4783Z" fill="black"/>
<path d="M46.5652 35.4783H48.7826V37.6957H46.5652V35.4783Z" fill="black"/>
<path d="M48.7826 35.4783H51V37.6957H48.7826V35.4783Z" fill="black"/>
<path d="M0 37.6957H2.21739V39.913H0V37.6957Z" fill="black"/>
<path d="M2.21739 37.6957H4.43478V39.913H2.21739V37.6957Z" fill="black"/>
<path d="M46.5652 37.6957H48.7826V39.913H46.5652V37.6957Z" fill="black"/>
<path d="M48.7826 37.6957H51V39.913H48.7826V37.6957Z" fill="black"/>
<path d="M2.21739 39.913H4.43478V42.1304H2.21739V39.913Z" fill="black"/>
<path d="M4.43478 39.913L6.65217 39.913V42.1304H4.43478V39.913Z" fill="black"/>
<path d="M44.3478 39.913L46.5652 39.913L46.5652 42.1304H44.3478V39.913Z" fill="black"/>
<path d="M46.5652 39.913H48.7826V42.1304H46.5652L46.5652 39.913Z" fill="black"/>
<path d="M48.7826 39.913H51V42.1304H48.7826V39.913Z" fill="black"/>
<path d="M2.21739 42.1304H4.43478V44.3478H2.21739V42.1304Z" fill="black"/>
<path d="M4.43478 42.1304H6.65217V44.3478H4.43478V42.1304Z" fill="black"/>
<path d="M6.65217 42.1304L8.86957 42.1304V44.3478H6.65217V42.1304Z" fill="black"/>
<path d="M44.3478 42.1304H46.5652V44.3478H44.3478V42.1304Z" fill="black"/>
<path d="M46.5652 42.1304H48.7826V44.3478H46.5652V42.1304Z" fill="black"/>
<path d="M4.43478 44.3478H6.65217V46.5652H4.43478V44.3478Z" fill="black"/>
<path d="M6.65217 44.3478H8.86957V46.5652H6.65217V44.3478Z" fill="black"/>
<path d="M8.86957 44.3478L11.087 44.3478V46.5652H8.86957V44.3478Z" fill="black"/>
<path d="M39.913 44.3478H42.1304V46.5652H39.913V44.3478Z" fill="black"/>
<path d="M42.1304 44.3478L44.3478 44.3478V46.5652H42.1304V44.3478Z" fill="black"/>
<path d="M44.3478 44.3478H46.5652V46.5652H44.3478V44.3478Z" fill="black"/>
<path d="M6.65217 46.5652H8.86957V48.7826H6.65217V46.5652Z" fill="black"/>
<path d="M8.86957 46.5652H11.087V48.7826H8.86957V46.5652Z" fill="black"/>
<path d="M11.087 46.5652L13.3043 46.5652V48.7826H11.087V46.5652Z" fill="black"/>
<path d="M13.3043 46.5652H15.5217V48.7826H13.3043V46.5652Z" fill="black"/>
<path d="M15.5217 46.5652H17.7391V48.7826H15.5217V46.5652Z" fill="black"/>
<path d="M17.7391 46.5652H19.9565V48.7826H17.7391V46.5652Z" fill="black"/>
<path d="M19.9565 46.5652H22.1739V48.7826H19.9565V46.5652Z" fill="black"/>
<path d="M22.1739 46.5652H24.3913V48.7826H22.1739V46.5652Z" fill="black"/>
<path d="M24.3913 46.5652H26.6087V48.7826H24.3913V46.5652Z" fill="black"/>
<path d="M26.6087 46.5652H28.8261V48.7826H26.6087V46.5652Z" fill="black"/>
<path d="M28.8261 46.5652H31.0435V48.7826H28.8261V46.5652Z" fill="black"/>
<path d="M31.0435 46.5652H33.2609V48.7826H31.0435V46.5652Z" fill="black"/>
<path d="M33.2609 46.5652H35.4783V48.7826H33.2609V46.5652Z" fill="black"/>
<path d="M35.4783 46.5652H37.6957V48.7826H35.4783V46.5652Z" fill="black"/>
<path d="M37.6957 46.5652L39.913 46.5652V48.7826H37.6957V46.5652Z" fill="black"/>
<path d="M39.913 46.5652H42.1304V48.7826H39.913V46.5652Z" fill="black"/>
<path d="M42.1304 46.5652H44.3478V48.7826H42.1304V46.5652Z" fill="black"/>
<path d="M11.087 48.7826H13.3043V51H11.087L11.087 48.7826Z" fill="black"/>
<path d="M13.3043 48.7826H15.5217V51H13.3043V48.7826Z" fill="black"/>
<path d="M15.5217 48.7826H17.7391V51H15.5217V48.7826Z" fill="black"/>
<path d="M17.7391 48.7826H19.9565V51H17.7391V48.7826Z" fill="black"/>
<path d="M19.9565 48.7826H22.1739V51H19.9565V48.7826Z" fill="black"/>
<path d="M22.1739 48.7826H24.3913V51H22.1739V48.7826Z" fill="black"/>
<path d="M24.3913 48.7826H26.6087V51H24.3913V48.7826Z" fill="black"/>
<path d="M26.6087 48.7826H28.8261V51H26.6087V48.7826Z" fill="black"/>
<path d="M28.8261 48.7826H31.0435V51H28.8261V48.7826Z" fill="black"/>
<path d="M31.0435 48.7826H33.2609V51H31.0435V48.7826Z" fill="black"/>
<path d="M33.2609 48.7826H35.4783V51H33.2609V48.7826Z" fill="black"/>
<path d="M35.4783 48.7826H37.6957V51H35.4783V48.7826Z" fill="black"/>
<path d="M37.6957 48.7826H39.913V51H37.6957V48.7826Z" fill="black"/>
</svg>
