<?xml version="1.0" encoding="UTF-8"?><svg id="Layer_2" xmlns="http://www.w3.org/2000/svg" xmlns:xlink="http://www.w3.org/1999/xlink" viewBox="0 0 937.77 1080"><defs><style>.cls-1{fill:#010101;stroke-width:0px;}</style><symbol id="Foot-Lines" viewBox="0 0 555.31 989.25"><path class="cls-1" d="m521.08,113.9c14.1,53.1-67.2,181.5-77,202.5-.6,1.2-1,2.5-1.2,3.8-1.8,14.1-30.3,42-22.7,106.2,6.8,57.3,52.6,71.9,128.6,214.2,30.1,56.4-53.5,223.2-53.7,223.3-10.6,8.7-15.5,71-62.9,111.5-44.9,38.2-186.9-.9-141.7-138.9,9.5-29.1,30.5-31,30.4-39.4,0-.4,3.9-21.8-33.5-27.2-59.5-8.6-119.4-68.6-140.7-104.5-2.5-4.2-5.9-7.4-10.3-10.6-17.6,35.4,23.9,62.4,24.1,62.5,2.9,2.6,43.8,33.4,9,74.1-21.9,25.6-6-4.5-49.5,29.9-20.4-3.6-13.9-1.1-21.7-9.2-10.8-11.4,2.6-39.7-27.4-62-3.9-2.9-8.3-5.3-12.2-8.2-13.8-10.6-46-50.8-8.8-110.3,20.3-32.5,44.7-11.7,61.5-14.7,1.3-15.4-32.9-63.3-34.1-88.9-3.2-71.5-3.1-59.1,11.8-125.8,8.3-37.3,107.2-160.8,107.4-160.9,26.5-20.8,10.3-113.6,80.5-191.1C321.18,1.4,408.68-.1,410.18,0c97.2,5.7,106.5,97.4,110.9,113.9h0Zm-120.5,183.6c1.4-1.6,2.8-2.8,3.6-4.3,1.7-3.2,2.9-6.7,4.7-9.9,40-72.6,57.1-125,57.1-126.5,0-.8.1-1.6.5-2.2,2.5-4.8,2.7-9.9,3-15.1.2-3.3-.9-6.4-2-9.4-.6.2-61.3,32-39.2,66,1.8,2.8,2.5,6.4,4.3,9.2,3,4.7,2.6,9.3-.2,13.5-17.6,26-95.1,86.8-95.2,87-3.4,4.2-7.6,8.3-13,10.3-12.8,4.7-30.4,40.9-172.8,134.8-2.5,1.7-5.5,2.9-7.6,5-3,3-6.6,4.5-10.3,5.9-1.6.6-3.3,1-4.9,1.7-3.5,1.4-5.4,4.2-6.2,7.7-1.2,5.7,0,11.3.6,17.5,2.2-.4,4-.7,5.8-1.1,1.3-.3,2.6-1.3,3.8-1.2,2,.2,57.8-20.1,174.5-121.5.3-.2.7-.3,1-.6l14.8-12.9c.6-5.1,1-9.5,1.6-13.9.3-2.2,1.2-3.8,3.2-5.2,6.3-4.1,9.2-10.4,11.5-17.6,12.7-3.7,46.5-41.4,58-20.1.4,1.1,1.9,1.7,3.4,2.9h0Zm-254.4,287.5c2.8-3.7,5.2-6.8,7.6-10,1.8-2.4,4.3-3.7,7.3-4.1,2.6-.4,5.2-1.2,7.5-2.3,5.2-2.6,9.3-6.9,14.7-9.6,4.5-2.2,6.5-8.5,12.6-9,6.6-5.3,39.7-32.1,49.7-40.2,3.4-2.7,7.1-5.1,10.5-7.9,5.6-4.7,11.1-9.5,16.4-14.5,8.1-7.5,16-15.1,23.9-22.7,2.5-2.4,4.6-5.2,7.4-7.2,8.4-6,15.6-13.2,22.6-20.6,2.5-2.6,4.3-5.8,6.2-8.9,2.5-4.1,4.6-8.3,7.2-12.4,1.3-2.1,3.1-3.9,4.7-5.8,5.1-5.7,9.7-11.9,16.9-15.5,2.9-1.4,5.2-3.9,6.1-7.3.8-3.2,1.7-6.3,3-9.3,1.9-4.3,1.7-8.6.9-13l-3-2c-3,1.9-6,3.3-8.4,5.4-3.6,3.1-7.9,5.3-10.9,9.1-1.9,2.4-3.9,4.8-6,7-2.7,2.9-6.3,4.7-8.6,8.3-2,3.1-5.6,5.2-8.5,7.8-1.2,1-2.2,2.2-3.5,3.1-8.3,5.6-16.4,11.2-23.2,18.7-3,3.3-6.3,6.4-10,8.7-6.1,3.7-11.3,8.5-17,12.8-8.4,6.3-16.6,13-25,19.5-7.1,5.5-15.7,8.5-22.3,14.7-.3.2-.7.3-1,.5-5.9,3.9-12,7.6-17.7,11.7-6.4,4.6-12.1,9.8-19.6,13-5.9,2.5-11.4,6.2-17,9.5-1.5.9-2.8,2-4.2,3-2.1,1.5-4.3,2.9-6.5,4.4l-.3-.5-2.5,3.6c-2.3.4-4.7.3-6.3,1.4-3.1,2-6.4,1.7-9.4,1.5-4.7-.4-8.7,1-12.7,2.9-2.1,1-3.5,2.3-3.5,4.6,1.1,3.5,1.8,7,2.7,10.6,1.1,4.4,2.1,8.9,3.8,13.2,1.5,3.9,3.7,7.5,5.6,11.2,2.4,4.8,4.7,9.7,7.2,14.4.4.8,1.7,1.4,2.6,2.2h0Zm27.6,45.9c2.2-1.3,3.7-2.3,5.4-3.1,3.3-1.5,6.6-2.8,9.9-4.4,128.5-63.2,173-144.9,187.8-144.7,1-1.8,2-3,2.6-4.4,1-2.5,2-5,1.2-7.8-1.7-6.1-3.3-12.2-4.9-18.2-2.7-.8-5.3-.8-7.4.8-3.2,2.4-6.2,5-9.1,7.8-72.6,71.6-150.2,128.7-165.2,143.8-.5.5-1.2,1-1.9,1.4-6,3.4-12,6.8-18.1,10.3-.9,2.6-2.8,5.5-2.8,8.5,0,3.2,1.6,6.5,2.5,10h0Zm229.6-119.4c-135.3,122.6-167.3,129.5-184,146.2l-3.7-.5c-.8.7-1.4,1.1-1.9,1.7-7.3,7.1-6.9,11.8-2.6,18.9,1.3,2.1,2,4.5,3,6.8.2.5.6,1,1,1.8l4.3,1.9c2.9-1.3,5.8-2.1,8.1-3.8,22.6-17,4.5,6.2,133.9-95.9,5.8-4.6,10-10.4,9.6-18.8-.2-4.1,1.3-8.2,2-12,2.1-.8,3.9-.9,4.9-1.9,4.8-4.9,10.8-8.8,12.7-16,.2-.7.6-1.5,1.1-2,3.9-4.7,7.4-9.8,12.3-13.6,4.9-3.8,4.9-5.7,1.5-10.6-.6-.7-1.2-1.2-2.2-2.2h0Zm-158.8-248.5c7.4-5.1,14.4-9.9,21.2-14.7,20.5-14.3,191.1-157.4,194-173.6-1-1.5-1.9-3.2-3.2-4.6-3.4-3.6-8.9-3.6-11.7.1-27.5,35.6-92.9,80.5-123.4,111.9-2.7,2.7-6.2,4.5-8.4,7.9-6.3.6-12.5-.7-18.7-1.8-3.2-.6-5.9-1.7-8.1-4-2.3-2.5-4.7-5-7.1-7.5-1.2-1.3-2.6-2.5-3.9-3.7-19.8,40.1-9.7,54.1-31.7,81.8-1.1,1.4-1.3,3.5-1.9,5.2l2.9,3h0Zm-107.1,148.9c.2-.1,102.4-62.6,185.1-145.8,9.9-10,22.6-14.2,69.5-65.4,1.5-1.7,2.8-4.1.7-7.2-5,4.2-9.2,9-15.2,11.3-.3.1-.5.6-.8.8-.2,0-158.6,138.8-197.9,141.7-52.1,66.5-47,61.6-41.4,64.6h0ZM412.88,44.4c-2-.3-82.7-5.2-125,72.8-3.6,6.7-2.3,9.5-.3,28.4l7.5-1.2c98.1-76.1,117.6-99.8,117.8-100h0Zm57.7,588.6c7.9-.8,11.6-6.6,15.2-12.5-.6-4.9-1.7-9.3-6.5-11.8-2.7,3.2-5.2,6.6-8.1,9.7-14.6,15.4-62.5,52.4-93,79.2-3.8,3.3-7.6,6.5-11.1,10-3,3-5.6,6.4-8.5,9.5-2.5,2.7-5.1,5.2-7.8,7.8-2.3,2.3-3.5,5-3.4,8.3.1,2.3,0,4.6,0,7.4l6.9,8.1c29.1-9.4,107.1-94.1,109.9-101.2,2.1-4.8,4.2-9.5,6.4-14.5h0Zm-60.7-32.7c-1.6.5-3.1.6-4.1,1.4-.2.1-101.3,89.7-125.1,98.9-5.3,2.1-9.2,5.5-11.8,10.3.1,4.7,2.8,7.8,6.2,10.8h7c4.6,3,8.4,4.5,11.5,4.5,9.6-16.1,5.6-20.9,15-25,4.3-1.9,100-71.9,106.1-94.4l-4.8-6.5h0Zm84.9,79.2c-1.5,1.9-2.7,3.6-4,5.1-4.3,5.1-95.3,82.8-100.5,95.2l6.1,7.6c.7-.1,16,4.7,17.2,5.8,1.3-1.7,2.2-3.2,3.4-4.5,6.2-6.6,12.2-13.4,18.6-19.8,3.7-3.8,55-54.5,57.2-79.9l3.2-3c-.5-2.1,1.2-4.5-1.2-6.5h0Zm-39.9,153.7c7.2-22,17.8-29.8,17.8-48.4-.6,3.1.5.4-22.9,28v12.9l5.1,7.5h0Zm-367.1-133c4.8-9.7-.3-18-2.2-26.8l-4.7-2.4c-6.9,6.6-4.9,14.8-4.9,22.4l7.5,6.2,4.3.6Z"/><path class="cls-1" d="m256.08,827.6c5,6.5,3.1,22.2,2,27.1-4.9,22.8,1.2,12.7-5.8,39.8-2.8,11-9.3,18.9-18.7,24.6-17.5,10.6-32.3,39-57.6,37.4-20.1-14-11.1,1.2-32.4-23.6-23.6-27.5-11.9-65.7-9.3-85.4,1.1-8.4,22.7-15.3,40.6-35.7,1.6-1.8,45.9-30.4,81.2,15.8h0Zm-73.3,51.2l10.2,6.5h9.2l5.8-5.1c.2-3.4,1.3-7.1-1.8-10.8-1.7-.3-4.2-1.6-6.1-1-2.7.9-4.9,0-7.3-.6-1.5-.4-2.9-.8-4-1-6.6,4-12.4,8-13.9,15.9,4.4,1.3,4.4-4.7,7.9-3.9h0Z"/><path class="cls-1" d="m75.58,539.9c2.5,6.4-1.8,27.1-10.6,37.6-6,7.1-13.1,13-20.9,18.1-17.8,11.6-60.2-21.2-37.6-67.1,3.5-7.1,10.3-10.3,17.4-10.6,11.8-.5,29.3-9.3,43.5,4.5,4.3,4.1,1.1-.6,8.2,17.5h0Z"/></symbol><symbol id="MH" viewBox="0 0 1014.81 923.94"><path class="cls-1" d="m256.66,615.75c7.9-56.1,55.5,83.8,57.4,87.8,8.7,18.6,56.8,94.1,56.3,160.2-.4,44.6,58.7,64.8,76.6,59.3,55.1-17,56.3-53.5,67.9-69.7,12-16.8-22.4-336.2,13-410.5.2-.5,31.5-182.2,31.6-182.6,1.9-15.3-24.1-42-58.8-50-34.1-7.9-37.5,6.1-81.2,69.1-10.3,165-36.1,198.7-32.4,244-50.4-40.4-63.7-97.5-78.9-155.5-23.5-26.1-50.3-47.4-90.8-34.8-66.7,67.9-21.3,45-72.6,222.1-1.9-2.7-3.6-4.1-3.9-5.8-1.3-6.3-2.1-12.7-3.2-19-24.1-133.3-30.6-265.2-30.6-265.7-.2-77.2-83-58-83.5-58-63,174.1,18.6,484.9,33.6,591.1,1.3,9.2,1.1,19.2-1.2,28.1-2.5,9.9-5.9,27.8,24,62.2,19.7,22.6,114.7,9.1,134.6-83.6,32.8-153.2,31.3-112.7,42.1-188.7h0Z"/><path class="cls-1" d="m785.56,477.05c26.4-5.1,47,2.9,63.5,21.4,6.1,6.8,22.9,19.8,20.1,179.8-.2,11.6.2,23.2,1.2,34.7,3.7,42.6,89.7,51,136.4-18.6,5.5-8.1,11.2-21.9,6-59.4-47.8-344.8-40.5-467.8-42-493-1.8-32.7-7-65.1-22.4-94.4-16.5-31.6-71.2-58.1-83.1-9-7.8,32.3-10.8,65.3-11,98.6,0,.5-4.7,220.6-4.7,221-5,.3-8.5,1.3-11.4.4-38.2-11-58-17.3-75.3-27.6-8.9-5.3-13.4-15.1-14.6-25-25.3-212.1-1.1-172.8-13.8-260.2C729.96,14.85,686.26-1.05,669.46.05c-34.8,17.9-45.2,49.6-50.8,83.7-18.9,114.8,8.2,174.5-8.9,205.1-25.9,19.2-48.3,29.2-54.1,86.9-1.1,10.7,2.4,20.8,12.8,27,29,17.1,67.8,6.9,72.8,57.6,5.9,60.1,9.2-.6,14.1,179.1.3,9.8,2.4,19.6,4.6,29.2,13.9,59.5,155.5,28,138.6-62.2-16.7-90.4-13-127.3-13-129.4h0Z"/></symbol></defs><g id="Layer_1-2"><use width="555.31" height="989.25" transform="translate(0 1080) scale(1.09 -1.09)" xlink:href="#Foot-Lines"/><use width="1014.81" height="923.94" transform="translate(549.98 928.9) scale(.38 -.38)" xlink:href="#MH"/></g></svg>