<?xml version="1.0" encoding="utf-8"?>
<!-- Generator: Adobe Illustrator 27.0.0, SVG Export Plug-In . SVG Version: 6.00 Build 0)  -->
<svg version="1.1" id="Layer_1" xmlns="http://www.w3.org/2000/svg" xmlns:xlink="http://www.w3.org/1999/xlink" x="0px" y="0px"
	 viewBox="0 0 781.9 903" style="enable-background:new 0 0 781.9 903;" xml:space="preserve">
<symbol  id="Foot-Lines" viewBox="-277.7 -494.6 555.3 989.3">
	<g>
		<path d="M243.4,380.7c14.1-53.1-67.2-181.5-77-202.5c-0.6-1.2-1-2.5-1.2-3.8c-1.8-14.1-30.3-42-22.7-106.2
			c6.8-57.3,52.6-71.9,128.6-214.2c30.1-56.4-53.5-223.2-53.7-223.3c-10.6-8.7-15.5-71-62.9-111.5C109.6-519-32.4-479.9,12.8-341.9
			c9.5,29.1,30.5,31,30.4,39.4c0,0.4,3.9,21.8-33.5,27.2c-59.5,8.6-119.4,68.6-140.7,104.5c-2.5,4.2-5.9,7.4-10.3,10.6
			c-17.6-35.4,23.9-62.4,24.1-62.5c2.9-2.6,43.8-33.4,9-74.1c-21.9-25.6-6,4.5-49.5-29.9c-20.4,3.6-13.9,1.1-21.7,9.2
			c-10.8,11.4,2.6,39.7-27.4,62c-3.9,2.9-8.3,5.3-12.2,8.2c-13.8,10.6-46,50.8-8.8,110.3c20.3,32.5,44.7,11.7,61.5,14.7
			c1.3,15.4-32.9,63.3-34.1,88.9c-3.2,71.5-3.1,59.1,11.8,125.8c8.3,37.3,107.2,160.8,107.4,160.9c26.5,20.8,10.3,113.6,80.5,191.1
			c44.2,48.8,131.7,50.3,133.2,50.2C229.7,488.9,239,397.2,243.4,380.7L243.4,380.7z M122.9,197.1c1.4,1.6,2.8,2.8,3.6,4.3
			c1.7,3.2,2.9,6.7,4.7,9.9c40,72.6,57.1,125,57.1,126.5c0,0.8,0.1,1.6,0.5,2.2c2.5,4.8,2.7,9.9,3,15.1c0.2,3.3-0.9,6.4-2,9.4
			c-0.6-0.2-61.3-32-39.2-66c1.8-2.8,2.5-6.4,4.3-9.2c3-4.7,2.6-9.3-0.2-13.5c-17.6-26-95.1-86.8-95.2-87c-3.4-4.2-7.6-8.3-13-10.3
			c-12.8-4.7-30.4-40.9-172.8-134.8c-2.5-1.7-5.5-2.9-7.6-5c-3-3-6.6-4.5-10.3-5.9c-1.6-0.6-3.3-1-4.9-1.7c-3.5-1.4-5.4-4.2-6.2-7.7
			c-1.2-5.7,0-11.3,0.6-17.5c2.2,0.4,4,0.7,5.8,1.1c1.3,0.3,2.6,1.3,3.8,1.2c2-0.2,57.8,20.1,174.5,121.5c0.3,0.2,0.7,0.3,1,0.6
			l14.8,12.9c0.6,5.1,1,9.5,1.6,13.9c0.3,2.2,1.2,3.8,3.2,5.2c6.3,4.1,9.2,10.4,11.5,17.6c12.7,3.7,46.5,41.4,58,20.1
			C119.9,198.9,121.4,198.3,122.9,197.1L122.9,197.1z M-131.5-90.4c2.8,3.7,5.2,6.8,7.6,10c1.8,2.4,4.3,3.7,7.3,4.1
			c2.6,0.4,5.2,1.2,7.5,2.3c5.2,2.6,9.3,6.9,14.7,9.6c4.5,2.2,6.5,8.5,12.6,9c6.6,5.3,39.7,32.1,49.7,40.2c3.4,2.7,7.1,5.1,10.5,7.9
			C-16-2.6-10.5,2.2-5.2,7.2c8.1,7.5,16,15.1,23.9,22.7c2.5,2.4,4.6,5.2,7.4,7.2c8.4,6,15.6,13.2,22.6,20.6c2.5,2.6,4.3,5.8,6.2,8.9
			c2.5,4.1,4.6,8.3,7.2,12.4c1.3,2.1,3.1,3.9,4.7,5.8c5.1,5.7,9.7,11.9,16.9,15.5c2.9,1.4,5.2,3.9,6.1,7.3c0.8,3.2,1.7,6.3,3,9.3
			c1.9,4.3,1.7,8.6,0.9,13l-3,2c-3-1.9-6-3.3-8.4-5.4c-3.6-3.1-7.9-5.3-10.9-9.1c-1.9-2.4-3.9-4.8-6-7c-2.7-2.9-6.3-4.7-8.6-8.3
			c-2-3.1-5.6-5.2-8.5-7.8c-1.2-1-2.2-2.2-3.5-3.1C36.5,85.6,28.4,80,21.6,72.5c-3-3.3-6.3-6.4-10-8.7C5.5,60.1,0.3,55.3-5.4,51
			c-8.4-6.3-16.6-13-25-19.5C-37.5,26-46.1,23-52.7,16.8c-0.3-0.2-0.7-0.3-1-0.5c-5.9-3.9-12-7.6-17.7-11.7C-77.8,0-83.5-5.2-91-8.4
			c-5.9-2.5-11.4-6.2-17-9.5c-1.5-0.9-2.8-2-4.2-3c-2.1-1.5-4.3-2.9-6.5-4.4l-0.3,0.5l-2.5-3.6c-2.3-0.4-4.7-0.3-6.3-1.4
			c-3.1-2-6.4-1.7-9.4-1.5c-4.7,0.4-8.7-1-12.7-2.9c-2.1-1-3.5-2.3-3.5-4.6c1.1-3.5,1.8-7,2.7-10.6c1.1-4.4,2.1-8.9,3.8-13.2
			c1.5-3.9,3.7-7.5,5.6-11.2c2.4-4.8,4.7-9.7,7.2-14.4C-133.7-89-132.4-89.6-131.5-90.4L-131.5-90.4z M-103.9-136.3
			c2.2,1.3,3.7,2.3,5.4,3.1c3.3,1.5,6.6,2.8,9.9,4.4C39.9-65.6,84.4,16.1,99.2,15.9c1,1.8,2,3,2.6,4.4c1,2.5,2,5,1.2,7.8
			c-1.7,6.1-3.3,12.2-4.9,18.2c-2.7,0.8-5.3,0.8-7.4-0.8c-3.2-2.4-6.2-5-9.1-7.8C9-33.9-68.6-91-83.6-106.1c-0.5-0.5-1.2-1-1.9-1.4
			c-6-3.4-12-6.8-18.1-10.3c-0.9-2.6-2.8-5.5-2.8-8.5C-106.4-129.5-104.8-132.8-103.9-136.3L-103.9-136.3z M125.7-16.9
			C-9.6-139.5-41.6-146.4-58.3-163.1l-3.7,0.5c-0.8-0.7-1.4-1.1-1.9-1.7c-7.3-7.1-6.9-11.8-2.6-18.9c1.3-2.1,2-4.5,3-6.8
			c0.2-0.5,0.6-1,1-1.8l4.3-1.9c2.9,1.3,5.8,2.1,8.1,3.8c22.6,17,4.5-6.2,133.9,95.9c5.8,4.6,10,10.4,9.6,18.8
			c-0.2,4.1,1.3,8.2,2,12c2.1,0.8,3.9,0.9,4.9,1.9c4.8,4.9,10.8,8.8,12.7,16c0.2,0.7,0.6,1.5,1.1,2c3.9,4.7,7.4,9.8,12.3,13.6
			c4.9,3.8,4.9,5.7,1.5,10.6C127.3-18.4,126.7-17.9,125.7-16.9L125.7-16.9z M-33.1,231.6c7.4,5.1,14.4,9.9,21.2,14.7
			c20.5,14.3,191.1,157.4,194,173.6c-1,1.5-1.9,3.2-3.2,4.6c-3.4,3.6-8.9,3.6-11.7-0.1c-27.5-35.6-92.9-80.5-123.4-111.9
			c-2.7-2.7-6.2-4.5-8.4-7.9c-6.3-0.6-12.5,0.7-18.7,1.8c-3.2,0.6-5.9,1.7-8.1,4c-2.3,2.5-4.7,5-7.1,7.5c-1.2,1.3-2.6,2.5-3.9,3.7
			c-19.8-40.1-9.7-54.1-31.7-81.8c-1.1-1.4-1.3-3.5-1.9-5.2L-33.1,231.6L-33.1,231.6z M-140.2,82.7c0.2,0.1,102.4,62.6,185.1,145.8
			c9.9,10,22.6,14.2,69.5,65.4c1.5,1.7,2.8,4.1,0.7,7.2c-5-4.2-9.2-9-15.2-11.3c-0.3-0.1-0.5-0.6-0.8-0.8
			c-0.2,0-158.6-138.8-197.9-141.7C-150.9,80.8-145.8,85.7-140.2,82.7L-140.2,82.7z M135.2,450.2c-2,0.3-82.7,5.2-125-72.8
			c-3.6-6.7-2.3-9.5-0.3-28.4l7.5,1.2C115.5,426.3,135,450,135.2,450.2L135.2,450.2z M192.9-138.4c7.9,0.8,11.6,6.6,15.2,12.5
			c-0.6,4.9-1.7,9.3-6.5,11.8c-2.7-3.2-5.2-6.6-8.1-9.7c-14.6-15.4-62.5-52.4-93-79.2c-3.8-3.3-7.6-6.5-11.1-10
			c-3-3-5.6-6.4-8.5-9.5c-2.5-2.7-5.1-5.2-7.8-7.8c-2.3-2.3-3.5-5-3.4-8.3c0.1-2.3,0-4.6,0-7.4l6.9-8.1
			c29.1,9.4,107.1,94.1,109.9,101.2C188.6-148.1,190.7-143.4,192.9-138.4L192.9-138.4z M132.2-105.7c-1.6-0.5-3.1-0.6-4.1-1.4
			C127.9-107.2,26.8-196.8,3-206c-5.3-2.1-9.2-5.5-11.8-10.3c0.1-4.7,2.8-7.8,6.2-10.8h7c4.6-3,8.4-4.5,11.5-4.5
			c9.6,16.1,5.6,20.9,15,25c4.3,1.9,100,71.9,106.1,94.4L132.2-105.7L132.2-105.7z M217.1-184.9c-1.5-1.9-2.7-3.6-4-5.1
			c-4.3-5.1-95.3-82.8-100.5-95.2l6.1-7.6c0.7,0.1,16-4.7,17.2-5.8c1.3,1.7,2.2,3.2,3.4,4.5c6.2,6.6,12.2,13.4,18.6,19.8
			c3.7,3.8,55,54.5,57.2,79.9l3.2,3C217.8-189.3,219.5-186.9,217.1-184.9L217.1-184.9z M177.2-338.6c7.2,22,17.8,29.8,17.8,48.4
			c-0.6-3.1,0.5-0.4-22.9-28v-12.9L177.2-338.6L177.2-338.6z M-189.9-205.6c4.8,9.7-0.3,18-2.2,26.8l-4.7,2.4
			c-6.9-6.6-4.9-14.8-4.9-22.4l7.5-6.2L-189.9-205.6z"/>
		<path d="M-21.6-333c5-6.5,3.1-22.2,2-27.1c-4.9-22.8,1.2-12.7-5.8-39.8c-2.8-11-9.3-18.9-18.7-24.6c-17.5-10.6-32.3-39-57.6-37.4
			c-20.1,14-11.1-1.2-32.4,23.6c-23.6,27.5-11.9,65.7-9.3,85.4c1.1,8.4,22.7,15.3,40.6,35.7C-101.2-315.4-56.9-286.8-21.6-333
			L-21.6-333z M-94.9-384.2l10.2-6.5h9.2l5.8,5.1c0.2,3.4,1.3,7.1-1.8,10.8c-1.7,0.3-4.2,1.6-6.1,1c-2.7-0.9-4.9,0-7.3,0.6
			c-1.5,0.4-2.9,0.8-4,1c-6.6-4-12.4-8-13.9-15.9C-98.4-389.4-98.4-383.4-94.9-384.2L-94.9-384.2z"/>
		<path d="M-202.1-45.3c2.5-6.4-1.8-27.1-10.6-37.6c-6-7.1-13.1-13-20.9-18.1c-17.8-11.6-60.2,21.2-37.6,67.1
			c3.5,7.1,10.3,10.3,17.4,10.6c11.8,0.5,29.3,9.3,43.5-4.5C-206-31.9-209.2-27.2-202.1-45.3L-202.1-45.3z"/>
	</g>
</symbol>
<symbol  id="MH" viewBox="-507.4 -462 1014.8 923.9">
	<g>
		<path d="M-250.7-153.8c7.9,56.1,55.5-83.8,57.4-87.8c8.7-18.6,56.8-94.1,56.3-160.2c-0.4-44.6,58.7-64.8,76.6-59.3
			c55.1,17,56.3,53.5,67.9,69.7c12,16.8-22.4,336.2,13,410.5c0.2,0.5,31.5,182.2,31.6,182.6c1.9,15.3-24.1,42-58.8,50
			c-34.1,7.9-37.5-6.1-81.2-69.1c-10.3-165-36.1-198.7-32.4-244C-170.7-21-184,36.1-199.2,94.1c-23.5,26.1-50.3,47.4-90.8,34.8
			c-66.7-67.9-21.3-45-72.6-222.1c-1.9,2.7-3.6,4.1-3.9,5.8c-1.3,6.3-2.1,12.7-3.2,19c-24.1,133.3-30.6,265.2-30.6,265.7
			c-0.2,77.2-83,58-83.5,58c-63-174.1,18.6-484.9,33.6-591.1c1.3-9.2,1.1-19.2-1.2-28.1c-2.5-9.9-5.9-27.8,24-62.2
			c19.7-22.6,114.7-9.1,134.6,83.6C-260-189.3-261.5-229.8-250.7-153.8L-250.7-153.8z"/>
		<path d="M278.2-15.1c26.4,5.1,47-2.9,63.5-21.4c6.1-6.8,22.9-19.8,20.1-179.8c-0.2-11.6,0.2-23.2,1.2-34.7
			c3.7-42.6,89.7-51,136.4,18.6c5.5,8.1,11.2,21.9,6,59.4c-47.8,344.8-40.5,467.8-42,493c-1.8,32.7-7,65.1-22.4,94.4
			c-16.5,31.6-71.2,58.1-83.1,9c-7.8-32.3-10.8-65.3-11-98.6c0-0.5-4.7-220.6-4.7-221c-5-0.3-8.5-1.3-11.4-0.4
			c-38.2,11-58,17.3-75.3,27.6c-8.9,5.3-13.4,15.1-14.6,25c-25.3,212.1-1.1,172.8-13.8,260.2c-4.5,30.9-48.2,46.8-65,45.7
			c-34.8-17.9-45.2-49.6-50.8-83.7c-18.9-114.8,8.2-174.5-8.9-205.1c-25.9-19.2-48.3-29.2-54.1-86.9c-1.1-10.7,2.4-20.8,12.8-27
			c29-17.1,67.8-6.9,72.8-57.6c5.9-60.1,9.2,0.6,14.1-179.1c0.3-9.8,2.4-19.6,4.6-29.2c13.9-59.5,155.5-28,138.6,62.2
			C274.5-54.1,278.2-17.2,278.2-15.1L278.2-15.1z"/>
	</g>
</symbol>
<g>
	
		<use xlink:href="#Foot-Lines"  width="555.3" height="989.3" x="-277.7" y="-494.6" transform="matrix(0.9128 0 0 0.9128 253.4455 451.4946)" style="overflow:visible;"/>
	<g>
		
			<use xlink:href="#MH"  width="1014.8" height="923.9" x="-507.4" y="-462" transform="matrix(0.3195 0 0 0.3195 619.8095 608.2864)" style="overflow:visible;"/>
	</g>
</g>
</svg>
