<?xml version="1.0" encoding="UTF-8"?><svg id="Layer_2" xmlns="http://www.w3.org/2000/svg" viewBox="0 0 1080 1079.99"><defs><style>.cls-1{fill:#010101;stroke-width:0px;}</style></defs><g id="Layer_1-2"><path class="cls-1" d="m1047.27,32.74h-32.72V0H65.46v32.73h-32.73v32.74H0s0,32.72,0,32.72v949.09h32.73v32.72s32.73,0,32.73,0h981.82v-32.72h32.73V32.74h-32.73ZM327.27,458.17v458.2h-32.73s-32.73-.01-32.73-.01h-98.18s0-32.72,0-32.72v-458.18h163.64v32.72Zm0-229.09v65.47h-32.73s0,32.72,0,32.72h-32.73s-32.72,0-32.72,0h-32.73v-32.74h-32.73s0-32.72,0-32.72v-65.45h32.73v-32.74h98.18v32.74h32.73v32.72Zm589.09,327.28v360.01h-32.72s-32.73-.01-32.73-.01h-98.18s0-32.72,0-32.72v-327.27h-32.73v-32.73h-98.18v32.72h-32.73v360.01h-32.72s-32.73-.01-32.73-.01h-98.18s0-32.72,0-32.72v-458.18h130.91v32.72s0,32.73,0,32.73h32.73v-32.73h32.73v-32.72h65.46v-32.74h98.18v32.74s32.73,0,32.73,0h32.73v32.72h32.73v65.47h32.72v32.72Z"/></g></svg>