<svg width="60" height="60" viewBox="0 0 60 60" fill="none" xmlns="http://www.w3.org/2000/svg">
<path d="M3.63647 0H5.45466V1.81818H3.63647V0Z" fill="black"/>
<path d="M5.45466 0H7.27275V1.81818H5.45466V0Z" fill="black"/>
<path d="M7.27275 0H9.09085V1.81818H7.27275V0Z" fill="black"/>
<path d="M9.09085 0H10.9092V1.81818H9.09085V0Z" fill="black"/>
<path d="M10.9092 0H12.7273V1.81818H10.9092V0Z" fill="black"/>
<path d="M12.7273 0H14.5454V1.81818H12.7273V0Z" fill="black"/>
<path d="M14.5454 0H16.3635V1.81818H14.5454V0Z" fill="black"/>
<path d="M16.3635 0H18.1819V1.81818H16.3635V0Z" fill="black"/>
<path d="M18.1819 0H20V1.81818H18.1819V0Z" fill="black"/>
<path d="M20 0H21.8181V1.81818H20V0Z" fill="black"/>
<path d="M21.8181 0H23.6365V1.81818H21.8181V0Z" fill="black"/>
<path d="M23.6365 0H25.4546V1.81818H23.6365V0Z" fill="black"/>
<path d="M25.4546 0H27.2727V1.81818H25.4546V0Z" fill="black"/>
<path d="M27.2727 0H29.091V1.81818H27.2727V0Z" fill="black"/>
<path d="M29.091 0H30.9091V1.81818H29.091V0Z" fill="black"/>
<path d="M30.9091 0H32.7272V1.81818H30.9091V0Z" fill="black"/>
<path d="M32.7272 0H34.5453V1.81818H32.7272V0Z" fill="black"/>
<path d="M34.5453 0H36.3637V1.81818H34.5453V0Z" fill="black"/>
<path d="M36.3637 0H38.1818V1.81818H36.3637V0Z" fill="black"/>
<path d="M38.1818 0H39.9999V1.81818H38.1818V0Z" fill="black"/>
<path d="M39.9999 0H41.8183V1.81818H39.9999V0Z" fill="black"/>
<path d="M41.8183 0H43.6364V1.81818H41.8183V0Z" fill="black"/>
<path d="M43.6364 0H45.4545V1.81818H43.6364V0Z" fill="black"/>
<path d="M45.4545 0H47.2728V1.81818H45.4545V0Z" fill="black"/>
<path d="M47.2728 0H49.0909V1.81818H47.2728V0Z" fill="black"/>
<path d="M49.0909 0H50.909V1.81818H49.0909V0Z" fill="black"/>
<path d="M50.909 0H52.7271V1.81818H50.909V0Z" fill="black"/>
<path d="M52.7271 0H54.5455V1.81818H52.7271V0Z" fill="black"/>
<path d="M54.5455 0H56.3636V1.81818H54.5455V0Z" fill="black"/>
<path d="M1.8181 1.81866L3.63647 1.81818L3.63628 3.63685H1.8181V1.81866Z" fill="black"/>
<path d="M3.63647 1.81818H5.45466V3.63685H3.63628L3.63647 1.81818Z" fill="black"/>
<path d="M5.45466 1.81818H7.27275V3.63685H5.45466V1.81818Z" fill="black"/>
<path d="M7.27275 1.81818H9.09085V3.63685H7.27275V1.81818Z" fill="black"/>
<path d="M9.09085 1.81818H10.9092V3.63685H9.09085V1.81818Z" fill="black"/>
<path d="M10.9092 1.81818H12.7273V3.63685H10.9092V1.81818Z" fill="black"/>
<path d="M12.7273 1.81818H14.5454V3.63685H12.7273V1.81818Z" fill="black"/>
<path d="M14.5454 1.81818H16.3635V3.63685H14.5454V1.81818Z" fill="black"/>
<path d="M16.3635 1.81818H18.1819V3.63685H16.3635V1.81818Z" fill="black"/>
<path d="M18.1819 1.81818H20V3.63685H18.1819V1.81818Z" fill="black"/>
<path d="M20 1.81818H21.8181V3.63685H20V1.81818Z" fill="black"/>
<path d="M21.8181 1.81818H23.6365V3.63685H21.8181V1.81818Z" fill="black"/>
<path d="M23.6365 1.81818H25.4546V3.63685H23.6365V1.81818Z" fill="black"/>
<path d="M25.4546 1.81818H27.2727V3.63685H25.4546V1.81818Z" fill="black"/>
<path d="M27.2727 1.81818H29.091V3.63685H27.2727V1.81818Z" fill="black"/>
<path d="M29.091 1.81818H30.9091V3.63685H29.091V1.81818Z" fill="black"/>
<path d="M30.9091 1.81818H32.7272V3.63685H30.9091V1.81818Z" fill="black"/>
<path d="M32.7272 1.81818H34.5453V3.63685H32.7272V1.81818Z" fill="black"/>
<path d="M34.5453 1.81818H36.3637V3.63685H34.5453V1.81818Z" fill="black"/>
<path d="M36.3637 1.81818H38.1818V3.63685H36.3637V1.81818Z" fill="black"/>
<path d="M38.1818 1.81818H39.9999V3.63685H38.1818V1.81818Z" fill="black"/>
<path d="M39.9999 1.81818H41.8183V3.63685H39.9999V1.81818Z" fill="black"/>
<path d="M41.8183 1.81818H43.6364V3.63685H41.8183V1.81818Z" fill="black"/>
<path d="M43.6364 1.81818H45.4545V3.63685H43.6364V1.81818Z" fill="black"/>
<path d="M45.4545 1.81818H47.2728V3.63685H45.4545V1.81818Z" fill="black"/>
<path d="M47.2728 1.81818H49.0909V3.63685H47.2728V1.81818Z" fill="black"/>
<path d="M49.0909 1.81818H50.909V3.63685H49.0909V1.81818Z" fill="black"/>
<path d="M50.909 1.81818H52.7271V3.63685H50.909V1.81818Z" fill="black"/>
<path d="M52.7271 1.81818H54.5455V3.63685H52.7271V1.81818Z" fill="black"/>
<path d="M54.5455 1.81818H56.3636V3.63685H54.5455V1.81818Z" fill="black"/>
<path d="M56.3636 1.81818L58.1817 1.81866V3.63685H56.3636V1.81818Z" fill="black"/>
<path d="M58.1817 1.81866H60.0001V3.63685H58.1817V1.81866Z" fill="black"/>
<path d="M0 3.6362L1.8181 3.63685L1.81818 5.45438H0V3.6362Z" fill="black"/>
<path d="M1.8181 3.63685H3.63628V5.45438H1.81818L1.8181 3.63685Z" fill="black"/>
<path d="M3.63628 3.63685H5.45466V5.45438H3.63628V3.63685Z" fill="black"/>
<path d="M5.45466 3.63685H7.27275V5.45438H5.45466V3.63685Z" fill="black"/>
<path d="M7.27275 3.63685H9.09085V5.45438H7.27275V3.63685Z" fill="black"/>
<path d="M9.09085 3.63685H10.9092V5.45438H9.09085V3.63685Z" fill="black"/>
<path d="M10.9092 3.63685H12.7273V5.45438H10.9092V3.63685Z" fill="black"/>
<path d="M12.7273 3.63685H14.5454V5.45438H12.7273V3.63685Z" fill="black"/>
<path d="M14.5454 3.63685H16.3635V5.45438H14.5454V3.63685Z" fill="black"/>
<path d="M16.3635 3.63685H18.1819V5.45438H16.3635V3.63685Z" fill="black"/>
<path d="M18.1819 3.63685H20V5.45438H18.1819V3.63685Z" fill="black"/>
<path d="M20 3.63685H21.8181V5.45438H20V3.63685Z" fill="black"/>
<path d="M21.8181 3.63685H23.6365V5.45438H21.8181V3.63685Z" fill="black"/>
<path d="M23.6365 3.63685H25.4546V5.45438H23.6365V3.63685Z" fill="black"/>
<path d="M25.4546 3.63685H27.2727V5.45438H25.4546V3.63685Z" fill="black"/>
<path d="M27.2727 3.63685H29.091V5.45438H27.2727V3.63685Z" fill="black"/>
<path d="M29.091 3.63685H30.9091V5.45438H29.091V3.63685Z" fill="black"/>
<path d="M30.9091 3.63685H32.7272V5.45438H30.9091V3.63685Z" fill="black"/>
<path d="M32.7272 3.63685H34.5453V5.45438H32.7272V3.63685Z" fill="black"/>
<path d="M34.5453 3.63685H36.3637V5.45438H34.5453V3.63685Z" fill="black"/>
<path d="M36.3637 3.63685H38.1818V5.45438H36.3637V3.63685Z" fill="black"/>
<path d="M38.1818 3.63685H39.9999V5.45438H38.1818V3.63685Z" fill="black"/>
<path d="M39.9999 3.63685H41.8183V5.45438H39.9999V3.63685Z" fill="black"/>
<path d="M41.8183 3.63685H43.6364V5.45438H41.8183V3.63685Z" fill="black"/>
<path d="M43.6364 3.63685H45.4545V5.45438H43.6364V3.63685Z" fill="black"/>
<path d="M45.4545 3.63685H47.2728V5.45438H45.4545V3.63685Z" fill="black"/>
<path d="M47.2728 3.63685H49.0909V5.45438H47.2728V3.63685Z" fill="black"/>
<path d="M49.0909 3.63685H50.909V5.45438H49.0909V3.63685Z" fill="black"/>
<path d="M50.909 3.63685H52.7271V5.45438H50.909V3.63685Z" fill="black"/>
<path d="M52.7271 3.63685H54.5455V5.45438H52.7271V3.63685Z" fill="black"/>
<path d="M54.5455 3.63685H56.3636V5.45438H54.5455V3.63685Z" fill="black"/>
<path d="M56.3636 3.63685H58.1817V5.45438H56.3636V3.63685Z" fill="black"/>
<path d="M58.1817 3.63685H60.0001V5.45438H58.1817V3.63685Z" fill="black"/>
<path d="M0 5.45438H1.81818V7.27303H0V5.45438Z" fill="black"/>
<path d="M1.81818 5.45438H3.63628V7.27303H1.81818V5.45438Z" fill="black"/>
<path d="M3.63628 5.45438H5.45466V7.27303H3.63628V5.45438Z" fill="black"/>
<path d="M5.45466 5.45438H7.27275V7.27303H5.45466V5.45438Z" fill="black"/>
<path d="M7.27275 5.45438H9.09085V7.27303H7.27275V5.45438Z" fill="black"/>
<path d="M9.09085 5.45438H10.9092V7.27303H9.09085V5.45438Z" fill="black"/>
<path d="M10.9092 5.45438H12.7273V7.27303H10.9092V5.45438Z" fill="black"/>
<path d="M12.7273 5.45438H14.5454V7.27303H12.7273V5.45438Z" fill="black"/>
<path d="M14.5454 5.45438H16.3635V7.27303H14.5454V5.45438Z" fill="black"/>
<path d="M16.3635 5.45438H18.1819V7.27303H16.3635V5.45438Z" fill="black"/>
<path d="M18.1819 5.45438H20V7.27303H18.1819V5.45438Z" fill="black"/>
<path d="M20 5.45438H21.8181V7.27303H20V5.45438Z" fill="black"/>
<path d="M21.8181 5.45438H23.6365V7.27303H21.8181V5.45438Z" fill="black"/>
<path d="M23.6365 5.45438H25.4546V7.27303H23.6365V5.45438Z" fill="black"/>
<path d="M25.4546 5.45438H27.2727V7.27303H25.4546V5.45438Z" fill="black"/>
<path d="M27.2727 5.45438H29.091V7.27303H27.2727V5.45438Z" fill="black"/>
<path d="M29.091 5.45438H30.9091V7.27303H29.091V5.45438Z" fill="black"/>
<path d="M30.9091 5.45438H32.7272V7.27303H30.9091V5.45438Z" fill="black"/>
<path d="M32.7272 5.45438H34.5453V7.27303H32.7272V5.45438Z" fill="black"/>
<path d="M34.5453 5.45438H36.3637V7.27303H34.5453V5.45438Z" fill="black"/>
<path d="M36.3637 5.45438H38.1818V7.27303H36.3637V5.45438Z" fill="black"/>
<path d="M38.1818 5.45438H39.9999V7.27303H38.1818V5.45438Z" fill="black"/>
<path d="M39.9999 5.45438H41.8183V7.27303H39.9999V5.45438Z" fill="black"/>
<path d="M41.8183 5.45438H43.6364V7.27303H41.8183V5.45438Z" fill="black"/>
<path d="M43.6364 5.45438H45.4545V7.27303H43.6364V5.45438Z" fill="black"/>
<path d="M45.4545 5.45438H47.2728V7.27303H45.4545V5.45438Z" fill="black"/>
<path d="M47.2728 5.45438H49.0909V7.27303H47.2728V5.45438Z" fill="black"/>
<path d="M49.0909 5.45438H50.909V7.27303H49.0909V5.45438Z" fill="black"/>
<path d="M50.909 5.45438H52.7271V7.27303H50.909V5.45438Z" fill="black"/>
<path d="M52.7271 5.45438H54.5455V7.27303H52.7271V5.45438Z" fill="black"/>
<path d="M54.5455 5.45438H56.3636V7.27303H54.5455V5.45438Z" fill="black"/>
<path d="M56.3636 5.45438H58.1817V7.27303H56.3636V5.45438Z" fill="black"/>
<path d="M58.1817 5.45438H60.0001V7.27303H58.1817V5.45438Z" fill="black"/>
<path d="M0 7.27303H1.81818V9.09057H0V7.27303Z" fill="black"/>
<path d="M1.81818 7.27303H3.63628V9.09057H1.81818V7.27303Z" fill="black"/>
<path d="M3.63628 7.27303H5.45466V9.09057H3.63628V7.27303Z" fill="black"/>
<path d="M5.45466 7.27303H7.27275V9.09057H5.45466V7.27303Z" fill="black"/>
<path d="M7.27275 7.27303H9.09085V9.09057H7.27275V7.27303Z" fill="black"/>
<path d="M9.09085 7.27303H10.9092V9.09057H9.09085V7.27303Z" fill="black"/>
<path d="M10.9092 7.27303H12.7273V9.09057H10.9092V7.27303Z" fill="black"/>
<path d="M12.7273 7.27303H14.5454V9.09057H12.7273V7.27303Z" fill="black"/>
<path d="M14.5454 7.27303H16.3635V9.09057H14.5454V7.27303Z" fill="black"/>
<path d="M16.3635 7.27303H18.1819V9.09057H16.3635V7.27303Z" fill="black"/>
<path d="M18.1819 7.27303H20V9.09057H18.1819V7.27303Z" fill="black"/>
<path d="M20 7.27303H21.8181V9.09057H20V7.27303Z" fill="black"/>
<path d="M21.8181 7.27303H23.6365V9.09057H21.8181V7.27303Z" fill="black"/>
<path d="M23.6365 7.27303H25.4546V9.09057H23.6365V7.27303Z" fill="black"/>
<path d="M25.4546 7.27303H27.2727V9.09057H25.4546V7.27303Z" fill="black"/>
<path d="M27.2727 7.27303H29.091V9.09057H27.2727V7.27303Z" fill="black"/>
<path d="M29.091 7.27303H30.9091V9.09057H29.091V7.27303Z" fill="black"/>
<path d="M30.9091 7.27303H32.7272V9.09057H30.9091V7.27303Z" fill="black"/>
<path d="M32.7272 7.27303H34.5453V9.09057H32.7272V7.27303Z" fill="black"/>
<path d="M34.5453 7.27303H36.3637V9.09057H34.5453V7.27303Z" fill="black"/>
<path d="M36.3637 7.27303H38.1818V9.09057H36.3637V7.27303Z" fill="black"/>
<path d="M38.1818 7.27303H39.9999V9.09057H38.1818V7.27303Z" fill="black"/>
<path d="M39.9999 7.27303H41.8183V9.09057H39.9999V7.27303Z" fill="black"/>
<path d="M41.8183 7.27303H43.6364V9.09057H41.8183V7.27303Z" fill="black"/>
<path d="M43.6364 7.27303H45.4545V9.09057H43.6364V7.27303Z" fill="black"/>
<path d="M45.4545 7.27303H47.2728V9.09057H45.4545V7.27303Z" fill="black"/>
<path d="M47.2728 7.27303H49.0909V9.09057H47.2728V7.27303Z" fill="black"/>
<path d="M49.0909 7.27303H50.909V9.09057H49.0909V7.27303Z" fill="black"/>
<path d="M50.909 7.27303H52.7271V9.09057H50.909V7.27303Z" fill="black"/>
<path d="M52.7271 7.27303H54.5455V9.09057H52.7271V7.27303Z" fill="black"/>
<path d="M54.5455 7.27303H56.3636V9.09057H54.5455V7.27303Z" fill="black"/>
<path d="M56.3636 7.27303H58.1817V9.09057H56.3636V7.27303Z" fill="black"/>
<path d="M58.1817 7.27303H60.0001V9.09057H58.1817V7.27303Z" fill="black"/>
<path d="M0 9.09057H1.81818V10.9092H0V9.09057Z" fill="black"/>
<path d="M1.81818 9.09057H3.63628V10.9092H1.81818V9.09057Z" fill="black"/>
<path d="M3.63628 9.09057H5.45466V10.9092H3.63628V9.09057Z" fill="black"/>
<path d="M5.45466 9.09057H7.27275V10.9092H5.45466V9.09057Z" fill="black"/>
<path d="M7.27275 9.09057H9.09085V10.9092H7.27275V9.09057Z" fill="black"/>
<path d="M9.09085 9.09057H10.9092V10.9092H9.09085V9.09057Z" fill="black"/>
<path d="M16.3635 9.09057H18.1819V10.9092H16.3637L16.3635 9.09057Z" fill="black"/>
<path d="M18.1819 9.09057H20V10.9092H18.1819V9.09057Z" fill="black"/>
<path d="M20 9.09057H21.8181V10.9092H20V9.09057Z" fill="black"/>
<path d="M21.8181 9.09057H23.6365V10.9092H21.8181V9.09057Z" fill="black"/>
<path d="M23.6365 9.09057H25.4546V10.9092H23.6365V9.09057Z" fill="black"/>
<path d="M25.4546 9.09057H27.2727V10.9092H25.4546V9.09057Z" fill="black"/>
<path d="M27.2727 9.09057H29.091V10.9092H27.2727V9.09057Z" fill="black"/>
<path d="M29.091 9.09057H30.9091V10.9092H29.091V9.09057Z" fill="black"/>
<path d="M30.9091 9.09057H32.7272V10.9092H30.9091V9.09057Z" fill="black"/>
<path d="M32.7272 9.09057H34.5453V10.9092H32.7272V9.09057Z" fill="black"/>
<path d="M34.5453 9.09057H36.3637V10.9092H34.5453V9.09057Z" fill="black"/>
<path d="M36.3637 9.09057H38.1818V10.9092H36.3637V9.09057Z" fill="black"/>
<path d="M38.1818 9.09057H39.9999V10.9092H38.1818V9.09057Z" fill="black"/>
<path d="M39.9999 9.09057H41.8183V10.9092H39.9999V9.09057Z" fill="black"/>
<path d="M41.8183 9.09057H43.6364V10.9092H41.8183V9.09057Z" fill="black"/>
<path d="M43.6364 9.09057H45.4545V10.9092H43.6364V9.09057Z" fill="black"/>
<path d="M45.4545 9.09057H47.2728V10.9092H45.4545V9.09057Z" fill="black"/>
<path d="M47.2728 9.09057H49.0909V10.9092H47.2728V9.09057Z" fill="black"/>
<path d="M49.0909 9.09057H50.909V10.9092H49.0909V9.09057Z" fill="black"/>
<path d="M50.909 9.09057H52.7271V10.9092H50.909V9.09057Z" fill="black"/>
<path d="M52.7271 9.09057H54.5455V10.9092H52.7271V9.09057Z" fill="black"/>
<path d="M54.5455 9.09057H56.3636V10.9092H54.5455V9.09057Z" fill="black"/>
<path d="M56.3636 9.09057H58.1817V10.9092H56.3636V9.09057Z" fill="black"/>
<path d="M58.1817 9.09057H60.0001V10.9092H58.1817V9.09057Z" fill="black"/>
<path d="M0 10.9092H1.81818V12.7268H0V10.9092Z" fill="black"/>
<path d="M1.81818 10.9092H3.63628V12.7268H1.81818V10.9092Z" fill="black"/>
<path d="M3.63628 10.9092H5.45466V12.7268H3.63628V10.9092Z" fill="black"/>
<path d="M5.45466 10.9092H7.27275V12.7268H5.45466V10.9092Z" fill="black"/>
<path d="M7.27275 10.9092H9.09085V12.7268H7.27275V10.9092Z" fill="black"/>
<path d="M18.1819 10.9092H20V12.7268H18.1818L18.1819 10.9092Z" fill="black"/>
<path d="M20 10.9092H21.8181V12.7268H20V10.9092Z" fill="black"/>
<path d="M21.8181 10.9092H23.6365V12.7268H21.8181V10.9092Z" fill="black"/>
<path d="M23.6365 10.9092H25.4546V12.7268H23.6365V10.9092Z" fill="black"/>
<path d="M25.4546 10.9092H27.2727V12.7268H25.4546V10.9092Z" fill="black"/>
<path d="M27.2727 10.9092H29.091V12.7268H27.2727V10.9092Z" fill="black"/>
<path d="M29.091 10.9092H30.9091V12.7268H29.091V10.9092Z" fill="black"/>
<path d="M30.9091 10.9092H32.7272V12.7268H30.9091V10.9092Z" fill="black"/>
<path d="M32.7272 10.9092H34.5453V12.7268H32.7272V10.9092Z" fill="black"/>
<path d="M34.5453 10.9092H36.3637V12.7268H34.5453V10.9092Z" fill="black"/>
<path d="M36.3637 10.9092H38.1818V12.7268H36.3637V10.9092Z" fill="black"/>
<path d="M38.1818 10.9092H39.9999V12.7268H38.1818V10.9092Z" fill="black"/>
<path d="M39.9999 10.9092H41.8183V12.7268H39.9999V10.9092Z" fill="black"/>
<path d="M41.8183 10.9092H43.6364V12.7268H41.8183V10.9092Z" fill="black"/>
<path d="M43.6364 10.9092H45.4545V12.7268H43.6364V10.9092Z" fill="black"/>
<path d="M45.4545 10.9092H47.2728V12.7268H45.4545V10.9092Z" fill="black"/>
<path d="M47.2728 10.9092H49.0909V12.7268H47.2728V10.9092Z" fill="black"/>
<path d="M49.0909 10.9092H50.909V12.7268H49.0909V10.9092Z" fill="black"/>
<path d="M50.909 10.9092H52.7271V12.7268H50.909V10.9092Z" fill="black"/>
<path d="M52.7271 10.9092H54.5455V12.7268H52.7271V10.9092Z" fill="black"/>
<path d="M54.5455 10.9092H56.3636V12.7268H54.5455V10.9092Z" fill="black"/>
<path d="M56.3636 10.9092H58.1817V12.7268H56.3636V10.9092Z" fill="black"/>
<path d="M58.1817 10.9092H60.0001V12.7268H58.1817V10.9092Z" fill="black"/>
<path d="M0 12.7268H1.81818V14.5454H0V12.7268Z" fill="black"/>
<path d="M1.81818 12.7268H3.63628V14.5454H1.81818V12.7268Z" fill="black"/>
<path d="M3.63628 12.7268H5.45466V14.5454H3.63628V12.7268Z" fill="black"/>
<path d="M5.45466 12.7268H7.27275V14.5454H5.45466V12.7268Z" fill="black"/>
<path d="M7.27275 12.7268H9.09085V14.5454H7.27275V12.7268Z" fill="black"/>
<path d="M18.1818 12.7268H20V14.5454H18.1818V12.7268Z" fill="black"/>
<path d="M20 12.7268H21.8181V14.5454H20V12.7268Z" fill="black"/>
<path d="M21.8181 12.7268H23.6365V14.5454H21.8181V12.7268Z" fill="black"/>
<path d="M23.6365 12.7268H25.4546V14.5454H23.6365V12.7268Z" fill="black"/>
<path d="M25.4546 12.7268H27.2727V14.5454H25.4546V12.7268Z" fill="black"/>
<path d="M27.2727 12.7268H29.091V14.5454H27.2727V12.7268Z" fill="black"/>
<path d="M29.091 12.7268H30.9091V14.5454H29.091V12.7268Z" fill="black"/>
<path d="M30.9091 12.7268H32.7272V14.5454H30.9091V12.7268Z" fill="black"/>
<path d="M32.7272 12.7268H34.5453V14.5454H32.7272V12.7268Z" fill="black"/>
<path d="M34.5453 12.7268H36.3637V14.5454H34.5453V12.7268Z" fill="black"/>
<path d="M36.3637 12.7268H38.1818V14.5454H36.3637V12.7268Z" fill="black"/>
<path d="M38.1818 12.7268H39.9999V14.5454H38.1818V12.7268Z" fill="black"/>
<path d="M39.9999 12.7268H41.8183V14.5454H39.9999V12.7268Z" fill="black"/>
<path d="M41.8183 12.7268H43.6364V14.5454H41.8183V12.7268Z" fill="black"/>
<path d="M43.6364 12.7268H45.4545V14.5454H43.6364V12.7268Z" fill="black"/>
<path d="M45.4545 12.7268H47.2728V14.5454H45.4545V12.7268Z" fill="black"/>
<path d="M47.2728 12.7268H49.0909V14.5454H47.2728V12.7268Z" fill="black"/>
<path d="M49.0909 12.7268H50.909V14.5454H49.0909V12.7268Z" fill="black"/>
<path d="M50.909 12.7268H52.7271V14.5454H50.909V12.7268Z" fill="black"/>
<path d="M52.7271 12.7268H54.5455V14.5454H52.7271V12.7268Z" fill="black"/>
<path d="M54.5455 12.7268H56.3636V14.5454H54.5455V12.7268Z" fill="black"/>
<path d="M56.3636 12.7268H58.1817V14.5454H56.3636V12.7268Z" fill="black"/>
<path d="M58.1817 12.7268H60.0001V14.5454H58.1817V12.7268Z" fill="black"/>
<path d="M0 14.5454H1.81818V16.3641H0V14.5454Z" fill="black"/>
<path d="M1.81818 14.5454H3.63628V16.3641H1.81818V14.5454Z" fill="black"/>
<path d="M3.63628 14.5454H5.45466V16.3641H3.63628V14.5454Z" fill="black"/>
<path d="M5.45466 14.5454H7.27275V16.3641H5.45466V14.5454Z" fill="black"/>
<path d="M7.27275 14.5454H9.09085V16.3641H7.27275V14.5454Z" fill="black"/>
<path d="M18.1818 14.5454H20V16.3641H18.1818V14.5454Z" fill="black"/>
<path d="M20 14.5454H21.8181V16.3641H20V14.5454Z" fill="black"/>
<path d="M21.8181 14.5454H23.6365V16.3641H21.8181V14.5454Z" fill="black"/>
<path d="M23.6365 14.5454H25.4546V16.3641H23.6365V14.5454Z" fill="black"/>
<path d="M25.4546 14.5454H27.2727V16.3641H25.4546V14.5454Z" fill="black"/>
<path d="M27.2727 14.5454H29.091V16.3641H27.2727V14.5454Z" fill="black"/>
<path d="M29.091 14.5454H30.9091V16.3641H29.091V14.5454Z" fill="black"/>
<path d="M30.9091 14.5454H32.7272V16.3641H30.9091V14.5454Z" fill="black"/>
<path d="M32.7272 14.5454H34.5453V16.3641H32.7272V14.5454Z" fill="black"/>
<path d="M34.5453 14.5454H36.3637V16.3641H34.5453V14.5454Z" fill="black"/>
<path d="M36.3637 14.5454H38.1818V16.3641H36.3637V14.5454Z" fill="black"/>
<path d="M38.1818 14.5454H39.9999V16.3641H38.1818V14.5454Z" fill="black"/>
<path d="M39.9999 14.5454H41.8183V16.3641H39.9999V14.5454Z" fill="black"/>
<path d="M41.8183 14.5454H43.6364V16.3641H41.8183V14.5454Z" fill="black"/>
<path d="M43.6364 14.5454H45.4545V16.3641H43.6364V14.5454Z" fill="black"/>
<path d="M45.4545 14.5454H47.2728V16.3641H45.4545V14.5454Z" fill="black"/>
<path d="M47.2728 14.5454H49.0909V16.3641H47.2728V14.5454Z" fill="black"/>
<path d="M49.0909 14.5454H50.909V16.3641H49.0909V14.5454Z" fill="black"/>
<path d="M50.909 14.5454H52.7271V16.3641H50.909V14.5454Z" fill="black"/>
<path d="M52.7271 14.5454H54.5455V16.3641H52.7271V14.5454Z" fill="black"/>
<path d="M54.5455 14.5454H56.3636V16.3641H54.5455V14.5454Z" fill="black"/>
<path d="M56.3636 14.5454H58.1817V16.3641H56.3636V14.5454Z" fill="black"/>
<path d="M58.1817 14.5454H60.0001V16.3641H58.1817V14.5454Z" fill="black"/>
<path d="M0 16.3641H1.81818V18.1816H0V16.3641Z" fill="black"/>
<path d="M1.81818 16.3641H3.63628V18.1816H1.81818V16.3641Z" fill="black"/>
<path d="M3.63628 16.3641H5.45466V18.1816H3.63628V16.3641Z" fill="black"/>
<path d="M5.45466 16.3641H7.27275V18.1816H5.45466V16.3641Z" fill="black"/>
<path d="M7.27275 16.3641H9.09085V18.1816H7.27275V16.3641Z" fill="black"/>
<path d="M9.09085 16.3641L10.9092 16.3634V18.1816H9.09085V16.3641Z" fill="black"/>
<path d="M16.3637 16.3634L18.1818 16.3641L18.1819 18.1816H16.3637V16.3634Z" fill="black"/>
<path d="M18.1818 16.3641H20V18.1816H18.1819L18.1818 16.3641Z" fill="black"/>
<path d="M20 16.3641H21.8181V18.1816H20V16.3641Z" fill="black"/>
<path d="M21.8181 16.3641H23.6365V18.1816H21.8181V16.3641Z" fill="black"/>
<path d="M23.6365 16.3641H25.4546V18.1816H23.6365V16.3641Z" fill="black"/>
<path d="M25.4546 16.3641H27.2727V18.1816H25.4546V16.3641Z" fill="black"/>
<path d="M27.2727 16.3641H29.091V18.1816H27.2727V16.3641Z" fill="black"/>
<path d="M29.091 16.3641H30.9091V18.1816H29.091V16.3641Z" fill="black"/>
<path d="M30.9091 16.3641H32.7272V18.1816H30.9091V16.3641Z" fill="black"/>
<path d="M32.7272 16.3641H34.5453V18.1816H32.7272V16.3641Z" fill="black"/>
<path d="M34.5453 16.3641H36.3637V18.1816H34.5453V16.3641Z" fill="black"/>
<path d="M36.3637 16.3641H38.1818V18.1816H36.3637V16.3641Z" fill="black"/>
<path d="M38.1818 16.3641H39.9999V18.1816H38.1818V16.3641Z" fill="black"/>
<path d="M39.9999 16.3641H41.8183V18.1816H39.9999V16.3641Z" fill="black"/>
<path d="M41.8183 16.3641H43.6364V18.1816H41.8183V16.3641Z" fill="black"/>
<path d="M43.6364 16.3641H45.4545V18.1816H43.6364V16.3641Z" fill="black"/>
<path d="M45.4545 16.3641H47.2728V18.1816H45.4545V16.3641Z" fill="black"/>
<path d="M47.2728 16.3641H49.0909V18.1816H47.2728V16.3641Z" fill="black"/>
<path d="M49.0909 16.3641H50.909V18.1816H49.0909V16.3641Z" fill="black"/>
<path d="M50.909 16.3641H52.7271V18.1816H50.909V16.3641Z" fill="black"/>
<path d="M52.7271 16.3641H54.5455V18.1816H52.7271V16.3641Z" fill="black"/>
<path d="M54.5455 16.3641H56.3636V18.1816H54.5455V16.3641Z" fill="black"/>
<path d="M56.3636 16.3641H58.1817V18.1816H56.3636V16.3641Z" fill="black"/>
<path d="M58.1817 16.3641H60.0001V18.1816H58.1817V16.3641Z" fill="black"/>
<path d="M0 18.1816H1.81818V20.0003H0V18.1816Z" fill="black"/>
<path d="M1.81818 18.1816H3.63628V20.0003H1.81818V18.1816Z" fill="black"/>
<path d="M3.63628 18.1816H5.45466V20.0003H3.63628V18.1816Z" fill="black"/>
<path d="M5.45466 18.1816H7.27275V20.0003H5.45466V18.1816Z" fill="black"/>
<path d="M7.27275 18.1816H9.09085V20.0003H7.27275V18.1816Z" fill="black"/>
<path d="M9.09085 18.1816H10.9092V20.0003H9.09085V18.1816Z" fill="black"/>
<path d="M10.9092 18.1816L12.7273 18.1821V20.0003H10.9092V18.1816Z" fill="black"/>
<path d="M12.7273 18.1821H14.5454V20.0003H12.7273V18.1821Z" fill="black"/>
<path d="M14.5454 18.1821L16.3637 18.1816L16.3635 20.0003H14.5454V18.1821Z" fill="black"/>
<path d="M16.3637 18.1816H18.1819V20.0003H16.3635L16.3637 18.1816Z" fill="black"/>
<path d="M18.1819 18.1816H20V20.0003H18.1819V18.1816Z" fill="black"/>
<path d="M20 18.1816H21.8181V20.0003H20V18.1816Z" fill="black"/>
<path d="M21.8181 18.1816H23.6365V20.0003H21.8181V18.1816Z" fill="black"/>
<path d="M23.6365 18.1816H25.4546V20.0003H23.6365V18.1816Z" fill="black"/>
<path d="M25.4546 18.1816H27.2727V20.0003H25.4546V18.1816Z" fill="black"/>
<path d="M27.2727 18.1816H29.091V20.0003H27.2727V18.1816Z" fill="black"/>
<path d="M29.091 18.1816H30.9091V20.0003H29.091V18.1816Z" fill="black"/>
<path d="M30.9091 18.1816H32.7272V20.0003H30.9091V18.1816Z" fill="black"/>
<path d="M32.7272 18.1816H34.5453V20.0003H32.7272V18.1816Z" fill="black"/>
<path d="M34.5453 18.1816H36.3637V20.0003H34.5453V18.1816Z" fill="black"/>
<path d="M36.3637 18.1816H38.1818V20.0003H36.3637V18.1816Z" fill="black"/>
<path d="M38.1818 18.1816H39.9999V20.0003H38.1818V18.1816Z" fill="black"/>
<path d="M39.9999 18.1816H41.8183V20.0003H39.9999V18.1816Z" fill="black"/>
<path d="M41.8183 18.1816H43.6364V20.0003H41.8183V18.1816Z" fill="black"/>
<path d="M43.6364 18.1816H45.4545V20.0003H43.6364V18.1816Z" fill="black"/>
<path d="M45.4545 18.1816H47.2728V20.0003H45.4545V18.1816Z" fill="black"/>
<path d="M47.2728 18.1816H49.0909V20.0003H47.2728V18.1816Z" fill="black"/>
<path d="M49.0909 18.1816H50.909V20.0003H49.0909V18.1816Z" fill="black"/>
<path d="M50.909 18.1816H52.7271V20.0003H50.909V18.1816Z" fill="black"/>
<path d="M52.7271 18.1816H54.5455V20.0003H52.7271V18.1816Z" fill="black"/>
<path d="M54.5455 18.1816H56.3636V20.0003H54.5455V18.1816Z" fill="black"/>
<path d="M56.3636 18.1816H58.1817V20.0003H56.3636V18.1816Z" fill="black"/>
<path d="M58.1817 18.1816H60.0001V20.0003H58.1817V18.1816Z" fill="black"/>
<path d="M0 20.0003H1.81818V21.8178H0V20.0003Z" fill="black"/>
<path d="M1.81818 20.0003H3.63628V21.8178H1.81818V20.0003Z" fill="black"/>
<path d="M3.63628 20.0003H5.45466V21.8178H3.63628V20.0003Z" fill="black"/>
<path d="M5.45466 20.0003H7.27275V21.8178H5.45466V20.0003Z" fill="black"/>
<path d="M7.27275 20.0003H9.09085V21.8178H7.27275V20.0003Z" fill="black"/>
<path d="M9.09085 20.0003H10.9092V21.8178H9.09085V20.0003Z" fill="black"/>
<path d="M10.9092 20.0003H12.7273V21.8178H10.9092V20.0003Z" fill="black"/>
<path d="M12.7273 20.0003H14.5454V21.8178H12.7273V20.0003Z" fill="black"/>
<path d="M14.5454 20.0003H16.3635V21.8178H14.5454V20.0003Z" fill="black"/>
<path d="M16.3635 20.0003H18.1819V21.8178H16.3635V20.0003Z" fill="black"/>
<path d="M18.1819 20.0003H20V21.8178H18.1819V20.0003Z" fill="black"/>
<path d="M20 20.0003H21.8181V21.8178H20V20.0003Z" fill="black"/>
<path d="M21.8181 20.0003H23.6365V21.8178H21.8181V20.0003Z" fill="black"/>
<path d="M23.6365 20.0003H25.4546V21.8178H23.6365V20.0003Z" fill="black"/>
<path d="M25.4546 20.0003H27.2727V21.8178H25.4546V20.0003Z" fill="black"/>
<path d="M27.2727 20.0003H29.091V21.8178H27.2727V20.0003Z" fill="black"/>
<path d="M29.091 20.0003H30.9091V21.8178H29.091V20.0003Z" fill="black"/>
<path d="M30.9091 20.0003H32.7272V21.8178H30.9091V20.0003Z" fill="black"/>
<path d="M32.7272 20.0003H34.5453V21.8178H32.7272V20.0003Z" fill="black"/>
<path d="M34.5453 20.0003H36.3637V21.8178H34.5453V20.0003Z" fill="black"/>
<path d="M36.3637 20.0003H38.1818V21.8178H36.3637V20.0003Z" fill="black"/>
<path d="M38.1818 20.0003H39.9999V21.8178H38.1818V20.0003Z" fill="black"/>
<path d="M39.9999 20.0003H41.8183V21.8178H39.9999V20.0003Z" fill="black"/>
<path d="M41.8183 20.0003H43.6364V21.8178H41.8183V20.0003Z" fill="black"/>
<path d="M43.6364 20.0003H45.4545V21.8178H43.6364V20.0003Z" fill="black"/>
<path d="M45.4545 20.0003H47.2728V21.8178H45.4545V20.0003Z" fill="black"/>
<path d="M47.2728 20.0003H49.0909V21.8178H47.2728V20.0003Z" fill="black"/>
<path d="M49.0909 20.0003H50.909V21.8178H49.0909V20.0003Z" fill="black"/>
<path d="M50.909 20.0003H52.7271V21.8178H50.909V20.0003Z" fill="black"/>
<path d="M52.7271 20.0003H54.5455V21.8178H52.7271V20.0003Z" fill="black"/>
<path d="M54.5455 20.0003H56.3636V21.8178H54.5455V20.0003Z" fill="black"/>
<path d="M56.3636 20.0003H58.1817V21.8178H56.3636V20.0003Z" fill="black"/>
<path d="M58.1817 20.0003H60.0001V21.8178H58.1817V20.0003Z" fill="black"/>
<path d="M0 21.8178H1.81818V23.6365H0V21.8178Z" fill="black"/>
<path d="M1.81818 21.8178H3.63628V23.6365H1.81818V21.8178Z" fill="black"/>
<path d="M3.63628 21.8178H5.45466V23.6365H3.63628V21.8178Z" fill="black"/>
<path d="M5.45466 21.8178H7.27275V23.6365H5.45466V21.8178Z" fill="black"/>
<path d="M7.27275 21.8178H9.09085V23.6365H7.27275V21.8178Z" fill="black"/>
<path d="M9.09085 21.8178H10.9092V23.6365H9.09085V21.8178Z" fill="black"/>
<path d="M10.9092 21.8178H12.7273V23.6365H10.9092V21.8178Z" fill="black"/>
<path d="M12.7273 21.8178H14.5454V23.6365H12.7273V21.8178Z" fill="black"/>
<path d="M14.5454 21.8178H16.3635V23.6365H14.5454V21.8178Z" fill="black"/>
<path d="M16.3635 21.8178H18.1819V23.6365H16.3635V21.8178Z" fill="black"/>
<path d="M18.1819 21.8178H20V23.6365H18.1819V21.8178Z" fill="black"/>
<path d="M20 21.8178H21.8181V23.6365H20V21.8178Z" fill="black"/>
<path d="M21.8181 21.8178H23.6365V23.6365H21.8181V21.8178Z" fill="black"/>
<path d="M23.6365 21.8178H25.4546V23.6365H23.6365V21.8178Z" fill="black"/>
<path d="M25.4546 21.8178H27.2727V23.6365H25.4546V21.8178Z" fill="black"/>
<path d="M27.2727 21.8178H29.091V23.6365H27.2727V21.8178Z" fill="black"/>
<path d="M29.091 21.8178H30.9091V23.6365H29.091V21.8178Z" fill="black"/>
<path d="M30.9091 21.8178H32.7272V23.6365H30.9091V21.8178Z" fill="black"/>
<path d="M32.7272 21.8178H34.5453V23.6365H32.7272V21.8178Z" fill="black"/>
<path d="M34.5453 21.8178H36.3637V23.6365H34.5453V21.8178Z" fill="black"/>
<path d="M36.3637 21.8178H38.1818V23.6365H36.3637V21.8178Z" fill="black"/>
<path d="M43.6364 21.8178H45.4545V23.6365H43.6363L43.6364 21.8178Z" fill="black"/>
<path d="M45.4545 21.8178H47.2728V23.6365H45.4545V21.8178Z" fill="black"/>
<path d="M47.2728 21.8178H49.0909V23.6365H47.2728V21.8178Z" fill="black"/>
<path d="M49.0909 21.8178H50.909V23.6365H49.0909V21.8178Z" fill="black"/>
<path d="M50.909 21.8178H52.7271V23.6365H50.909V21.8178Z" fill="black"/>
<path d="M52.7271 21.8178H54.5455V23.6365H52.7271V21.8178Z" fill="black"/>
<path d="M54.5455 21.8178H56.3636V23.6365H54.5455V21.8178Z" fill="black"/>
<path d="M56.3636 21.8178H58.1817V23.6365H56.3636V21.8178Z" fill="black"/>
<path d="M58.1817 21.8178H60.0001V23.6365H58.1817V21.8178Z" fill="black"/>
<path d="M0 23.6365H1.81818V25.454H0V23.6365Z" fill="black"/>
<path d="M1.81818 23.6365H3.63628V25.454H1.81818V23.6365Z" fill="black"/>
<path d="M3.63628 23.6365H5.45466V25.454H3.63628V23.6365Z" fill="black"/>
<path d="M5.45466 23.6365H7.27275V25.454H5.45466V23.6365Z" fill="black"/>
<path d="M7.27275 23.6365H9.09085V25.454H7.27275V23.6365Z" fill="black"/>
<path d="M18.1819 23.6365H20V25.454H18.1818L18.1819 23.6365Z" fill="black"/>
<path d="M20 23.6365H21.8181V25.454H20V23.6365Z" fill="black"/>
<path d="M21.8181 23.6365H23.6365V25.454H21.8181V23.6365Z" fill="black"/>
<path d="M30.9091 23.6365H32.7272V25.454H30.909L30.9091 23.6365Z" fill="black"/>
<path d="M32.7272 23.6365H34.5453V25.454H32.7272V23.6365Z" fill="black"/>
<path d="M47.2728 23.6365H49.0909V25.454H47.2728L47.2728 23.6365Z" fill="black"/>
<path d="M49.0909 23.6365H50.909V25.454H49.0909V23.6365Z" fill="black"/>
<path d="M50.909 23.6365H52.7271V25.454H50.909V23.6365Z" fill="black"/>
<path d="M52.7271 23.6365H54.5455V25.454H52.7271V23.6365Z" fill="black"/>
<path d="M54.5455 23.6365H56.3636V25.454H54.5455V23.6365Z" fill="black"/>
<path d="M56.3636 23.6365H58.1817V25.454H56.3636V23.6365Z" fill="black"/>
<path d="M58.1817 23.6365H60.0001V25.454H58.1817V23.6365Z" fill="black"/>
<path d="M0 25.454H1.81818V27.2726H0V25.454Z" fill="black"/>
<path d="M1.81818 25.454H3.63628V27.2726H1.81818V25.454Z" fill="black"/>
<path d="M3.63628 25.454H5.45466V27.2726H3.63628V25.454Z" fill="black"/>
<path d="M5.45466 25.454H7.27275V27.2726H5.45466V25.454Z" fill="black"/>
<path d="M7.27275 25.454H9.09085V27.2726H7.27275V25.454Z" fill="black"/>
<path d="M18.1818 25.454H20V27.2726H18.1818V25.454Z" fill="black"/>
<path d="M20 25.454H21.8181V27.2726H20V25.454Z" fill="black"/>
<path d="M21.8181 25.454H23.6365V27.2726H21.8181V25.454Z" fill="black"/>
<path d="M30.909 25.454H32.7272V27.2726H30.909V25.454Z" fill="black"/>
<path d="M49.0909 25.454H50.909V27.2726H49.0909L49.0909 25.454Z" fill="black"/>
<path d="M50.909 25.454H52.7271V27.2726H50.909V25.454Z" fill="black"/>
<path d="M52.7271 25.454H54.5455V27.2726H52.7271V25.454Z" fill="black"/>
<path d="M54.5455 25.454H56.3636V27.2726H54.5455V25.454Z" fill="black"/>
<path d="M56.3636 25.454H58.1817V27.2726H56.3636V25.454Z" fill="black"/>
<path d="M58.1817 25.454H60.0001V27.2726H58.1817V25.454Z" fill="black"/>
<path d="M0 27.2726H1.81818V29.0913H0V27.2726Z" fill="black"/>
<path d="M1.81818 27.2726H3.63628V29.0913H1.81818V27.2726Z" fill="black"/>
<path d="M3.63628 27.2726H5.45466V29.0913H3.63628V27.2726Z" fill="black"/>
<path d="M5.45466 27.2726H7.27275V29.0913H5.45466V27.2726Z" fill="black"/>
<path d="M7.27275 27.2726H9.09085V29.0913H7.27275V27.2726Z" fill="black"/>
<path d="M18.1818 27.2726H20V29.0913H18.1818V27.2726Z" fill="black"/>
<path d="M20 27.2726H21.8181V29.0913H20V27.2726Z" fill="black"/>
<path d="M21.8181 27.2726H23.6365V29.0913H21.8181V27.2726Z" fill="black"/>
<path d="M49.0909 27.2726H50.909V29.0913H49.0909V27.2726Z" fill="black"/>
<path d="M50.909 27.2726H52.7271V29.0913H50.909V27.2726Z" fill="black"/>
<path d="M52.7271 27.2726H54.5455V29.0913H52.7271V27.2726Z" fill="black"/>
<path d="M54.5455 27.2726H56.3636V29.0913H54.5455V27.2726Z" fill="black"/>
<path d="M56.3636 27.2726H58.1817V29.0913H56.3636V27.2726Z" fill="black"/>
<path d="M58.1817 27.2726H60.0001V29.0913H58.1817V27.2726Z" fill="black"/>
<path d="M0 29.0913H1.81818V30.9088H0V29.0913Z" fill="black"/>
<path d="M1.81818 29.0913H3.63628V30.9088H1.81818V29.0913Z" fill="black"/>
<path d="M3.63628 29.0913H5.45466V30.9088H3.63628V29.0913Z" fill="black"/>
<path d="M5.45466 29.0913H7.27275V30.9088H5.45466V29.0913Z" fill="black"/>
<path d="M7.27275 29.0913H9.09085V30.9088H7.27275V29.0913Z" fill="black"/>
<path d="M18.1818 29.0913H20V30.9088H18.1818V29.0913Z" fill="black"/>
<path d="M20 29.0913H21.8181V30.9088H20V29.0913Z" fill="black"/>
<path d="M21.8181 29.0913H23.6365V30.9088H21.8181V29.0913Z" fill="black"/>
<path d="M34.5455 29.0907H36.3637V30.9088H34.5455V29.0907Z" fill="black"/>
<path d="M36.3637 29.0907H38.1818V30.9088H36.3637V29.0907Z" fill="black"/>
<path d="M38.1818 29.0907H39.9999V30.9088H38.1818V29.0907Z" fill="black"/>
<path d="M50.909 29.0913H52.7271V30.9088H50.909L50.909 29.0913Z" fill="black"/>
<path d="M52.7271 29.0913H54.5455V30.9088H52.7271V29.0913Z" fill="black"/>
<path d="M54.5455 29.0913H56.3636V30.9088H54.5455V29.0913Z" fill="black"/>
<path d="M56.3636 29.0913H58.1817V30.9088H56.3636V29.0913Z" fill="black"/>
<path d="M58.1817 29.0913H60.0001V30.9088H58.1817V29.0913Z" fill="black"/>
<path d="M0 30.9088H1.81818V32.7275H0V30.9088Z" fill="black"/>
<path d="M1.81818 30.9088H3.63628V32.7275H1.81818V30.9088Z" fill="black"/>
<path d="M3.63628 30.9088H5.45466V32.7275H3.63628V30.9088Z" fill="black"/>
<path d="M5.45466 30.9088H7.27275V32.7275H5.45466V30.9088Z" fill="black"/>
<path d="M7.27275 30.9088H9.09085V32.7275H7.27275V30.9088Z" fill="black"/>
<path d="M18.1818 30.9088H20V32.7275H18.1818V30.9088Z" fill="black"/>
<path d="M20 30.9088H21.8181V32.7275H20V30.9088Z" fill="black"/>
<path d="M21.8181 30.9088H23.6365V32.7275H21.8181V30.9088Z" fill="black"/>
<path d="M32.7271 30.9093L34.5455 30.9088L34.5453 32.7275H32.7271V30.9093Z" fill="black"/>
<path d="M34.5455 30.9088H36.3637V32.7275H34.5453L34.5455 30.9088Z" fill="black"/>
<path d="M36.3637 30.9088H38.1818V32.7275H36.3637V30.9088Z" fill="black"/>
<path d="M38.1818 30.9088H39.9999V32.7275H38.1818V30.9088Z" fill="black"/>
<path d="M39.9999 30.9088L41.8183 30.9093V32.7275H39.9999V30.9088Z" fill="black"/>
<path d="M50.909 30.9088H52.7271V32.7275H50.909V30.9088Z" fill="black"/>
<path d="M52.7271 30.9088H54.5455V32.7275H52.7271V30.9088Z" fill="black"/>
<path d="M54.5455 30.9088H56.3636V32.7275H54.5455V30.9088Z" fill="black"/>
<path d="M56.3636 30.9088H58.1817V32.7275H56.3636V30.9088Z" fill="black"/>
<path d="M58.1817 30.9088H60.0001V32.7275H58.1817V30.9088Z" fill="black"/>
<path d="M0 32.7275H1.81818V34.545H0V32.7275Z" fill="black"/>
<path d="M1.81818 32.7275H3.63628V34.545H1.81818V32.7275Z" fill="black"/>
<path d="M3.63628 32.7275H5.45466V34.545H3.63628V32.7275Z" fill="black"/>
<path d="M5.45466 32.7275H7.27275V34.545H5.45466V32.7275Z" fill="black"/>
<path d="M7.27275 32.7275H9.09085V34.545H7.27275V32.7275Z" fill="black"/>
<path d="M18.1818 32.7275H20V34.545H18.1818V32.7275Z" fill="black"/>
<path d="M20 32.7275H21.8181V34.545H20V32.7275Z" fill="black"/>
<path d="M21.8181 32.7275H23.6365V34.545H21.8181V32.7275Z" fill="black"/>
<path d="M32.7271 32.7275H34.5453V34.545H32.7271V32.7275Z" fill="black"/>
<path d="M34.5453 32.7275H36.3637V34.545H34.5453V32.7275Z" fill="black"/>
<path d="M36.3637 32.7275H38.1818V34.545H36.3637V32.7275Z" fill="black"/>
<path d="M38.1818 32.7275H39.9999V34.545H38.1818V32.7275Z" fill="black"/>
<path d="M39.9999 32.7275H41.8183V34.545H39.9999V32.7275Z" fill="black"/>
<path d="M50.909 32.7275H52.7271V34.545H50.909V32.7275Z" fill="black"/>
<path d="M52.7271 32.7275H54.5455V34.545H52.7271V32.7275Z" fill="black"/>
<path d="M54.5455 32.7275H56.3636V34.545H54.5455V32.7275Z" fill="black"/>
<path d="M56.3636 32.7275H58.1817V34.545H56.3636V32.7275Z" fill="black"/>
<path d="M58.1817 32.7275H60.0001V34.545H58.1817V32.7275Z" fill="black"/>
<path d="M0 34.545H1.81818V36.3637H0V34.545Z" fill="black"/>
<path d="M1.81818 34.545H3.63628V36.3637H1.81818V34.545Z" fill="black"/>
<path d="M3.63628 34.545H5.45466V36.3637H3.63628V34.545Z" fill="black"/>
<path d="M5.45466 34.545H7.27275V36.3637H5.45466V34.545Z" fill="black"/>
<path d="M7.27275 34.545H9.09085V36.3637H7.27275V34.545Z" fill="black"/>
<path d="M18.1818 34.545H20V36.3637H18.1818V34.545Z" fill="black"/>
<path d="M20 34.545H21.8181V36.3637H20V34.545Z" fill="black"/>
<path d="M21.8181 34.545H23.6365V36.3637H21.8181V34.545Z" fill="black"/>
<path d="M32.7271 34.545H34.5453V36.3637H32.7271V34.545Z" fill="black"/>
<path d="M34.5453 34.545H36.3637V36.3637H34.5453V34.545Z" fill="black"/>
<path d="M36.3637 34.545H38.1818V36.3637H36.3637V34.545Z" fill="black"/>
<path d="M38.1818 34.545H39.9999V36.3637H38.1818V34.545Z" fill="black"/>
<path d="M39.9999 34.545H41.8183V36.3637H39.9999V34.545Z" fill="black"/>
<path d="M50.909 34.545H52.7271V36.3637H50.909V34.545Z" fill="black"/>
<path d="M52.7271 34.545H54.5455V36.3637H52.7271V34.545Z" fill="black"/>
<path d="M54.5455 34.545H56.3636V36.3637H54.5455V34.545Z" fill="black"/>
<path d="M56.3636 34.545H58.1817V36.3637H56.3636V34.545Z" fill="black"/>
<path d="M58.1817 34.545H60.0001V36.3637H58.1817V34.545Z" fill="black"/>
<path d="M0 36.3637H1.81818V38.1824H0V36.3637Z" fill="black"/>
<path d="M1.81818 36.3637H3.63628V38.1824H1.81818V36.3637Z" fill="black"/>
<path d="M3.63628 36.3637H5.45466V38.1824H3.63628V36.3637Z" fill="black"/>
<path d="M5.45466 36.3637H7.27275V38.1824H5.45466V36.3637Z" fill="black"/>
<path d="M7.27275 36.3637H9.09085V38.1824H7.27275V36.3637Z" fill="black"/>
<path d="M18.1818 36.3637H20V38.1824H18.1818V36.3637Z" fill="black"/>
<path d="M20 36.3637H21.8181V38.1824H20V36.3637Z" fill="black"/>
<path d="M21.8181 36.3637H23.6365V38.1824H21.8181V36.3637Z" fill="black"/>
<path d="M32.7271 36.3637H34.5453V38.1824H32.7271V36.3637Z" fill="black"/>
<path d="M34.5453 36.3637H36.3637V38.1824H34.5453V36.3637Z" fill="black"/>
<path d="M36.3637 36.3637H38.1818V38.1824H36.3637V36.3637Z" fill="black"/>
<path d="M38.1818 36.3637H39.9999V38.1824H38.1818V36.3637Z" fill="black"/>
<path d="M39.9999 36.3637H41.8183V38.1824H39.9999V36.3637Z" fill="black"/>
<path d="M50.909 36.3637H52.7271V38.1824H50.909V36.3637Z" fill="black"/>
<path d="M52.7271 36.3637H54.5455V38.1824H52.7271V36.3637Z" fill="black"/>
<path d="M54.5455 36.3637H56.3636V38.1824H54.5455V36.3637Z" fill="black"/>
<path d="M56.3636 36.3637H58.1817V38.1824H56.3636V36.3637Z" fill="black"/>
<path d="M58.1817 36.3637H60.0001V38.1824H58.1817V36.3637Z" fill="black"/>
<path d="M0 38.1824H1.81818V39.9999H0V38.1824Z" fill="black"/>
<path d="M1.81818 38.1824H3.63628V39.9999H1.81818V38.1824Z" fill="black"/>
<path d="M3.63628 38.1824H5.45466V39.9999H3.63628V38.1824Z" fill="black"/>
<path d="M5.45466 38.1824H7.27275V39.9999H5.45466V38.1824Z" fill="black"/>
<path d="M7.27275 38.1824H9.09085V39.9999H7.27275V38.1824Z" fill="black"/>
<path d="M18.1818 38.1824H20V39.9999H18.1818V38.1824Z" fill="black"/>
<path d="M20 38.1824H21.8181V39.9999H20V38.1824Z" fill="black"/>
<path d="M21.8181 38.1824H23.6365V39.9999H21.8181V38.1824Z" fill="black"/>
<path d="M32.7271 38.1824H34.5453V39.9999H32.7271V38.1824Z" fill="black"/>
<path d="M34.5453 38.1824H36.3637V39.9999H34.5453V38.1824Z" fill="black"/>
<path d="M36.3637 38.1824H38.1818V39.9999H36.3637V38.1824Z" fill="black"/>
<path d="M38.1818 38.1824H39.9999V39.9999H38.1818V38.1824Z" fill="black"/>
<path d="M39.9999 38.1824H41.8183V39.9999H39.9999V38.1824Z" fill="black"/>
<path d="M50.909 38.1824H52.7271V39.9999H50.909V38.1824Z" fill="black"/>
<path d="M52.7271 38.1824H54.5455V39.9999H52.7271V38.1824Z" fill="black"/>
<path d="M54.5455 38.1824H56.3636V39.9999H54.5455V38.1824Z" fill="black"/>
<path d="M56.3636 38.1824H58.1817V39.9999H56.3636V38.1824Z" fill="black"/>
<path d="M58.1817 38.1824H60.0001V39.9999H58.1817V38.1824Z" fill="black"/>
<path d="M0 39.9999H1.81818V41.8185H0V39.9999Z" fill="black"/>
<path d="M1.81818 39.9999H3.63628V41.8185H1.81818V39.9999Z" fill="black"/>
<path d="M3.63628 39.9999H5.45466V41.8185H3.63628V39.9999Z" fill="black"/>
<path d="M5.45466 39.9999H7.27275V41.8185H5.45466V39.9999Z" fill="black"/>
<path d="M7.27275 39.9999H9.09085V41.8185H7.27275V39.9999Z" fill="black"/>
<path d="M18.1818 39.9999H20V41.8185H18.1818V39.9999Z" fill="black"/>
<path d="M20 39.9999H21.8181V41.8185H20V39.9999Z" fill="black"/>
<path d="M21.8181 39.9999H23.6365V41.8185H21.8181V39.9999Z" fill="black"/>
<path d="M32.7271 39.9999H34.5453V41.8185H32.7271V39.9999Z" fill="black"/>
<path d="M34.5453 39.9999H36.3637V41.8185H34.5453V39.9999Z" fill="black"/>
<path d="M36.3637 39.9999H38.1818V41.8185H36.3637V39.9999Z" fill="black"/>
<path d="M38.1818 39.9999H39.9999V41.8185H38.1818V39.9999Z" fill="black"/>
<path d="M39.9999 39.9999H41.8183V41.8185H39.9999V39.9999Z" fill="black"/>
<path d="M50.909 39.9999H52.7271V41.8185H50.909V39.9999Z" fill="black"/>
<path d="M52.7271 39.9999H54.5455V41.8185H52.7271V39.9999Z" fill="black"/>
<path d="M54.5455 39.9999H56.3636V41.8185H54.5455V39.9999Z" fill="black"/>
<path d="M56.3636 39.9999H58.1817V41.8185H56.3636V39.9999Z" fill="black"/>
<path d="M58.1817 39.9999H60.0001V41.8185H58.1817V39.9999Z" fill="black"/>
<path d="M0 41.8185H1.81818V43.6361H0V41.8185Z" fill="black"/>
<path d="M1.81818 41.8185H3.63628V43.6361H1.81818V41.8185Z" fill="black"/>
<path d="M3.63628 41.8185H5.45466V43.6361H3.63628V41.8185Z" fill="black"/>
<path d="M5.45466 41.8185H7.27275V43.6361H5.45466V41.8185Z" fill="black"/>
<path d="M7.27275 41.8185H9.09085V43.6361H7.27275V41.8185Z" fill="black"/>
<path d="M18.1818 41.8185H20V43.6361H18.1818V41.8185Z" fill="black"/>
<path d="M20 41.8185H21.8181V43.6361H20V41.8185Z" fill="black"/>
<path d="M21.8181 41.8185H23.6365V43.6361H21.8181V41.8185Z" fill="black"/>
<path d="M32.7271 41.8185H34.5453V43.6361H32.7271V41.8185Z" fill="black"/>
<path d="M34.5453 41.8185H36.3637V43.6361H34.5453V41.8185Z" fill="black"/>
<path d="M36.3637 41.8185H38.1818V43.6361H36.3637V41.8185Z" fill="black"/>
<path d="M38.1818 41.8185H39.9999V43.6361H38.1818V41.8185Z" fill="black"/>
<path d="M39.9999 41.8185H41.8183V43.6361H39.9999V41.8185Z" fill="black"/>
<path d="M50.909 41.8185H52.7271V43.6361H50.909V41.8185Z" fill="black"/>
<path d="M52.7271 41.8185H54.5455V43.6361H52.7271V41.8185Z" fill="black"/>
<path d="M54.5455 41.8185H56.3636V43.6361H54.5455V41.8185Z" fill="black"/>
<path d="M56.3636 41.8185H58.1817V43.6361H56.3636V41.8185Z" fill="black"/>
<path d="M58.1817 41.8185H60.0001V43.6361H58.1817V41.8185Z" fill="black"/>
<path d="M0 43.6361H1.81818V45.4547H0V43.6361Z" fill="black"/>
<path d="M1.81818 43.6361H3.63628V45.4547H1.81818V43.6361Z" fill="black"/>
<path d="M3.63628 43.6361H5.45466V45.4547H3.63628V43.6361Z" fill="black"/>
<path d="M5.45466 43.6361H7.27275V45.4547H5.45466V43.6361Z" fill="black"/>
<path d="M7.27275 43.6361H9.09085V45.4547H7.27275V43.6361Z" fill="black"/>
<path d="M18.1818 43.6361H20V45.4547H18.1818V43.6361Z" fill="black"/>
<path d="M20 43.6361H21.8181V45.4547H20V43.6361Z" fill="black"/>
<path d="M21.8181 43.6361H23.6365V45.4547H21.8181V43.6361Z" fill="black"/>
<path d="M32.7271 43.6361H34.5453V45.4547H32.7271V43.6361Z" fill="black"/>
<path d="M34.5453 43.6361H36.3637V45.4547H34.5453V43.6361Z" fill="black"/>
<path d="M36.3637 43.6361H38.1818V45.4547H36.3637V43.6361Z" fill="black"/>
<path d="M38.1818 43.6361H39.9999V45.4547H38.1818V43.6361Z" fill="black"/>
<path d="M39.9999 43.6361H41.8183V45.4547H39.9999V43.6361Z" fill="black"/>
<path d="M50.909 43.6361H52.7271V45.4547H50.909V43.6361Z" fill="black"/>
<path d="M52.7271 43.6361H54.5455V45.4547H52.7271V43.6361Z" fill="black"/>
<path d="M54.5455 43.6361H56.3636V45.4547H54.5455V43.6361Z" fill="black"/>
<path d="M56.3636 43.6361H58.1817V45.4547H56.3636V43.6361Z" fill="black"/>
<path d="M58.1817 43.6361H60.0001V45.4547H58.1817V43.6361Z" fill="black"/>
<path d="M0 45.4547H1.81818V47.2723H0V45.4547Z" fill="black"/>
<path d="M1.81818 45.4547H3.63628V47.2723H1.81818V45.4547Z" fill="black"/>
<path d="M3.63628 45.4547H5.45466V47.2723H3.63628V45.4547Z" fill="black"/>
<path d="M5.45466 45.4547H7.27275V47.2723H5.45466V45.4547Z" fill="black"/>
<path d="M7.27275 45.4547H9.09085V47.2723H7.27275V45.4547Z" fill="black"/>
<path d="M18.1818 45.4547H20V47.2723H18.1818V45.4547Z" fill="black"/>
<path d="M20 45.4547H21.8181V47.2723H20V45.4547Z" fill="black"/>
<path d="M21.8181 45.4547H23.6365V47.2723H21.8181V45.4547Z" fill="black"/>
<path d="M32.7271 45.4547H34.5453V47.2723H32.7271V45.4547Z" fill="black"/>
<path d="M34.5453 45.4547H36.3637V47.2723H34.5453V45.4547Z" fill="black"/>
<path d="M36.3637 45.4547H38.1818V47.2723H36.3637V45.4547Z" fill="black"/>
<path d="M38.1818 45.4547H39.9999V47.2723H38.1818V45.4547Z" fill="black"/>
<path d="M39.9999 45.4547H41.8183V47.2723H39.9999V45.4547Z" fill="black"/>
<path d="M50.909 45.4547H52.7271V47.2723H50.909V45.4547Z" fill="black"/>
<path d="M52.7271 45.4547H54.5455V47.2723H52.7271V45.4547Z" fill="black"/>
<path d="M54.5455 45.4547H56.3636V47.2723H54.5455V45.4547Z" fill="black"/>
<path d="M56.3636 45.4547H58.1817V47.2723H56.3636V45.4547Z" fill="black"/>
<path d="M58.1817 45.4547H60.0001V47.2723H58.1817V45.4547Z" fill="black"/>
<path d="M0 47.2723H1.81818V49.0909H0V47.2723Z" fill="black"/>
<path d="M1.81818 47.2723H3.63628V49.0909H1.81818V47.2723Z" fill="black"/>
<path d="M3.63628 47.2723H5.45466V49.0909H3.63628V47.2723Z" fill="black"/>
<path d="M5.45466 47.2723H7.27275V49.0909H5.45466V47.2723Z" fill="black"/>
<path d="M7.27275 47.2723H9.09085V49.0909H7.27275V47.2723Z" fill="black"/>
<path d="M18.1818 47.2723H20V49.0909H18.1818V47.2723Z" fill="black"/>
<path d="M20 47.2723H21.8181V49.0909H20V47.2723Z" fill="black"/>
<path d="M21.8181 47.2723H23.6365V49.0909H21.8181V47.2723Z" fill="black"/>
<path d="M32.7271 47.2723H34.5453V49.0909H32.7271V47.2723Z" fill="black"/>
<path d="M34.5453 47.2723H36.3637V49.0909H34.5453V47.2723Z" fill="black"/>
<path d="M36.3637 47.2723H38.1818V49.0909H36.3637V47.2723Z" fill="black"/>
<path d="M38.1818 47.2723H39.9999V49.0909H38.1818V47.2723Z" fill="black"/>
<path d="M39.9999 47.2723H41.8183V49.0909H39.9999V47.2723Z" fill="black"/>
<path d="M50.909 47.2723H52.7271V49.0909H50.909V47.2723Z" fill="black"/>
<path d="M52.7271 47.2723H54.5455V49.0909H52.7271V47.2723Z" fill="black"/>
<path d="M54.5455 47.2723H56.3636V49.0909H54.5455V47.2723Z" fill="black"/>
<path d="M56.3636 47.2723H58.1817V49.0909H56.3636V47.2723Z" fill="black"/>
<path d="M58.1817 47.2723H60.0001V49.0909H58.1817V47.2723Z" fill="black"/>
<path d="M0 49.0909H1.81818V50.9096H0V49.0909Z" fill="black"/>
<path d="M1.81818 49.0909H3.63628V50.9096H1.81818V49.0909Z" fill="black"/>
<path d="M3.63628 49.0909H5.45466V50.9096H3.63628V49.0909Z" fill="black"/>
<path d="M5.45466 49.0909H7.27275V50.9096H5.45466V49.0909Z" fill="black"/>
<path d="M7.27275 49.0909H9.09085V50.9096H7.27275V49.0909Z" fill="black"/>
<path d="M18.1818 49.0909H20V50.9096H18.1818V49.0909Z" fill="black"/>
<path d="M20 49.0909H21.8181V50.9096H20V49.0909Z" fill="black"/>
<path d="M21.8181 49.0909H23.6365V50.9096H21.8181V49.0909Z" fill="black"/>
<path d="M32.7271 49.0909H34.5453V50.9096H32.7271V49.0909Z" fill="black"/>
<path d="M34.5453 49.0909H36.3637V50.9096H34.5453V49.0909Z" fill="black"/>
<path d="M36.3637 49.0909H38.1818V50.9096H36.3637V49.0909Z" fill="black"/>
<path d="M38.1818 49.0909H39.9999V50.9096H38.1818V49.0909Z" fill="black"/>
<path d="M39.9999 49.0909H41.8183V50.9096H39.9999V49.0909Z" fill="black"/>
<path d="M50.909 49.0909H52.7271V50.9096H50.909V49.0909Z" fill="black"/>
<path d="M52.7271 49.0909H54.5455V50.9096H52.7271V49.0909Z" fill="black"/>
<path d="M54.5455 49.0909H56.3636V50.9096H54.5455V49.0909Z" fill="black"/>
<path d="M56.3636 49.0909H58.1817V50.9096H56.3636V49.0909Z" fill="black"/>
<path d="M58.1817 49.0909H60.0001V50.9096H58.1817V49.0909Z" fill="black"/>
<path d="M0 50.9096H1.81818V52.7271H0V50.9096Z" fill="black"/>
<path d="M1.81818 50.9096H3.63628V52.7271H1.81818V50.9096Z" fill="black"/>
<path d="M3.63628 50.9096H5.45466V52.7271H3.63628V50.9096Z" fill="black"/>
<path d="M5.45466 50.9096H7.27275V52.7271H5.45466V50.9096Z" fill="black"/>
<path d="M7.27275 50.9096H9.09085V52.7271H7.27275V50.9096Z" fill="black"/>
<path d="M9.09085 50.9096L10.9092 50.9089V52.7271H9.09085V50.9096Z" fill="black"/>
<path d="M10.9092 50.9089H12.7273V52.7271H10.9092V50.9089Z" fill="black"/>
<path d="M12.7273 50.9089H14.5454V52.7271H12.7273V50.9089Z" fill="black"/>
<path d="M14.5454 50.9089H16.3635V52.7271H14.5454V50.9089Z" fill="black"/>
<path d="M16.3635 50.9089L18.1818 50.9096L18.1819 52.7271H16.3635V50.9089Z" fill="black"/>
<path d="M18.1818 50.9096H20V52.7271H18.1819L18.1818 50.9096Z" fill="black"/>
<path d="M20 50.9096H21.8181V52.7271H20V50.9096Z" fill="black"/>
<path d="M21.8181 50.9096H23.6365V52.7271H21.8181V50.9096Z" fill="black"/>
<path d="M23.6365 50.9096L25.4546 50.9089V52.7271H23.6365V50.9096Z" fill="black"/>
<path d="M25.4546 50.9089H27.2727V52.7271H25.4546V50.9089Z" fill="black"/>
<path d="M27.2727 50.9089H29.091V52.7271H27.2727V50.9089Z" fill="black"/>
<path d="M29.091 50.9089H30.9091V52.7271H29.091V50.9089Z" fill="black"/>
<path d="M30.9091 50.9089L32.7271 50.9096L32.7272 52.7271H30.9091V50.9089Z" fill="black"/>
<path d="M32.7271 50.9096H34.5453V52.7271H32.7272L32.7271 50.9096Z" fill="black"/>
<path d="M34.5453 50.9096H36.3637V52.7271H34.5453V50.9096Z" fill="black"/>
<path d="M36.3637 50.9096H38.1818V52.7271H36.3637V50.9096Z" fill="black"/>
<path d="M38.1818 50.9096H39.9999V52.7271H38.1818V50.9096Z" fill="black"/>
<path d="M39.9999 50.9096H41.8183V52.7271H39.9999V50.9096Z" fill="black"/>
<path d="M41.8183 50.9096L43.6364 50.9089V52.7271H41.8183V50.9096Z" fill="black"/>
<path d="M43.6364 50.9089H45.4545V52.7271H43.6364V50.9089Z" fill="black"/>
<path d="M45.4545 50.9089H47.2728V52.7271H45.4545V50.9089Z" fill="black"/>
<path d="M47.2728 50.9089H49.0909V52.7271H47.2728V50.9089Z" fill="black"/>
<path d="M49.0909 50.9089L50.909 50.9096L50.909 52.7271H49.0909V50.9089Z" fill="black"/>
<path d="M50.909 50.9096H52.7271V52.7271H50.909L50.909 50.9096Z" fill="black"/>
<path d="M52.7271 50.9096H54.5455V52.7271H52.7271V50.9096Z" fill="black"/>
<path d="M54.5455 50.9096H56.3636V52.7271H54.5455V50.9096Z" fill="black"/>
<path d="M56.3636 50.9096H58.1817V52.7271H56.3636V50.9096Z" fill="black"/>
<path d="M58.1817 50.9096H60.0001V52.7271H58.1817V50.9096Z" fill="black"/>
<path d="M0 52.7271H1.81818V54.5458H0V52.7271Z" fill="black"/>
<path d="M1.81818 52.7271H3.63628V54.5458H1.81818V52.7271Z" fill="black"/>
<path d="M3.63628 52.7271H5.45466V54.5458H3.63628V52.7271Z" fill="black"/>
<path d="M5.45466 52.7271H7.27275V54.5458H5.45466V52.7271Z" fill="black"/>
<path d="M7.27275 52.7271H9.09085V54.5458H7.27275V52.7271Z" fill="black"/>
<path d="M9.09085 52.7271H10.9092V54.5458H9.09085V52.7271Z" fill="black"/>
<path d="M10.9092 52.7271H12.7273V54.5458H10.9092V52.7271Z" fill="black"/>
<path d="M12.7273 52.7271H14.5454V54.5458H12.7273V52.7271Z" fill="black"/>
<path d="M14.5454 52.7271H16.3635V54.5458H14.5454V52.7271Z" fill="black"/>
<path d="M16.3635 52.7271H18.1819V54.5458H16.3635V52.7271Z" fill="black"/>
<path d="M18.1819 52.7271H20V54.5458H18.1819V52.7271Z" fill="black"/>
<path d="M20 52.7271H21.8181V54.5458H20V52.7271Z" fill="black"/>
<path d="M21.8181 52.7271H23.6365V54.5458H21.8181V52.7271Z" fill="black"/>
<path d="M23.6365 52.7271H25.4546V54.5458H23.6365V52.7271Z" fill="black"/>
<path d="M25.4546 52.7271H27.2727V54.5458H25.4546V52.7271Z" fill="black"/>
<path d="M27.2727 52.7271H29.091V54.5458H27.2727V52.7271Z" fill="black"/>
<path d="M29.091 52.7271H30.9091V54.5458H29.091V52.7271Z" fill="black"/>
<path d="M30.9091 52.7271H32.7272V54.5458H30.9091V52.7271Z" fill="black"/>
<path d="M32.7272 52.7271H34.5453V54.5458H32.7272V52.7271Z" fill="black"/>
<path d="M34.5453 52.7271H36.3637V54.5458H34.5453V52.7271Z" fill="black"/>
<path d="M36.3637 52.7271H38.1818V54.5458H36.3637V52.7271Z" fill="black"/>
<path d="M38.1818 52.7271H39.9999V54.5458H38.1818V52.7271Z" fill="black"/>
<path d="M39.9999 52.7271H41.8183V54.5458H39.9999V52.7271Z" fill="black"/>
<path d="M41.8183 52.7271H43.6364V54.5458H41.8183V52.7271Z" fill="black"/>
<path d="M43.6364 52.7271H45.4545V54.5458H43.6364V52.7271Z" fill="black"/>
<path d="M45.4545 52.7271H47.2728V54.5458H45.4545V52.7271Z" fill="black"/>
<path d="M47.2728 52.7271H49.0909V54.5458H47.2728V52.7271Z" fill="black"/>
<path d="M49.0909 52.7271H50.909V54.5458H49.0909V52.7271Z" fill="black"/>
<path d="M50.909 52.7271H52.7271V54.5458H50.909V52.7271Z" fill="black"/>
<path d="M52.7271 52.7271H54.5455V54.5458H52.7271V52.7271Z" fill="black"/>
<path d="M54.5455 52.7271H56.3636V54.5458H54.5455V52.7271Z" fill="black"/>
<path d="M56.3636 52.7271H58.1817V54.5458H56.3636V52.7271Z" fill="black"/>
<path d="M58.1817 52.7271H60.0001V54.5458H58.1817V52.7271Z" fill="black"/>
<path d="M0 54.5458H1.81818V56.3633H0V54.5458Z" fill="black"/>
<path d="M1.81818 54.5458H3.63628V56.3633H1.81818V54.5458Z" fill="black"/>
<path d="M3.63628 54.5458H5.45466V56.3633H3.63628V54.5458Z" fill="black"/>
<path d="M5.45466 54.5458H7.27275V56.3633H5.45466V54.5458Z" fill="black"/>
<path d="M7.27275 54.5458H9.09085V56.3633H7.27275V54.5458Z" fill="black"/>
<path d="M9.09085 54.5458H10.9092V56.3633H9.09085V54.5458Z" fill="black"/>
<path d="M10.9092 54.5458H12.7273V56.3633H10.9092V54.5458Z" fill="black"/>
<path d="M12.7273 54.5458H14.5454V56.3633H12.7273V54.5458Z" fill="black"/>
<path d="M14.5454 54.5458H16.3635V56.3633H14.5454V54.5458Z" fill="black"/>
<path d="M16.3635 54.5458H18.1819V56.3633H16.3635V54.5458Z" fill="black"/>
<path d="M18.1819 54.5458H20V56.3633H18.1819V54.5458Z" fill="black"/>
<path d="M20 54.5458H21.8181V56.3633H20V54.5458Z" fill="black"/>
<path d="M21.8181 54.5458H23.6365V56.3633H21.8181V54.5458Z" fill="black"/>
<path d="M23.6365 54.5458H25.4546V56.3633H23.6365V54.5458Z" fill="black"/>
<path d="M25.4546 54.5458H27.2727V56.3633H25.4546V54.5458Z" fill="black"/>
<path d="M27.2727 54.5458H29.091V56.3633H27.2727V54.5458Z" fill="black"/>
<path d="M29.091 54.5458H30.9091V56.3633H29.091V54.5458Z" fill="black"/>
<path d="M30.9091 54.5458H32.7272V56.3633H30.9091V54.5458Z" fill="black"/>
<path d="M32.7272 54.5458H34.5453V56.3633H32.7272V54.5458Z" fill="black"/>
<path d="M34.5453 54.5458H36.3637V56.3633H34.5453V54.5458Z" fill="black"/>
<path d="M36.3637 54.5458H38.1818V56.3633H36.3637V54.5458Z" fill="black"/>
<path d="M38.1818 54.5458H39.9999V56.3633H38.1818V54.5458Z" fill="black"/>
<path d="M39.9999 54.5458H41.8183V56.3633H39.9999V54.5458Z" fill="black"/>
<path d="M41.8183 54.5458H43.6364V56.3633H41.8183V54.5458Z" fill="black"/>
<path d="M43.6364 54.5458H45.4545V56.3633H43.6364V54.5458Z" fill="black"/>
<path d="M45.4545 54.5458H47.2728V56.3633H45.4545V54.5458Z" fill="black"/>
<path d="M47.2728 54.5458H49.0909V56.3633H47.2728V54.5458Z" fill="black"/>
<path d="M49.0909 54.5458H50.909V56.3633H49.0909V54.5458Z" fill="black"/>
<path d="M50.909 54.5458H52.7271V56.3633H50.909V54.5458Z" fill="black"/>
<path d="M52.7271 54.5458H54.5455V56.3633H52.7271V54.5458Z" fill="black"/>
<path d="M54.5455 54.5458H56.3636V56.3633H54.5455V54.5458Z" fill="black"/>
<path d="M56.3636 54.5458H58.1817V56.3633H56.3636V54.5458Z" fill="black"/>
<path d="M58.1817 54.5458H60.0001V56.3633H58.1817V54.5458Z" fill="black"/>
<path d="M0 56.3633H1.81818V58.182H0V56.3633Z" fill="black"/>
<path d="M1.81818 56.3633H3.63628V58.182H1.81818V56.3633Z" fill="black"/>
<path d="M3.63628 56.3633H5.45466V58.182H3.63628V56.3633Z" fill="black"/>
<path d="M5.45466 56.3633H7.27275V58.182H5.45466V56.3633Z" fill="black"/>
<path d="M7.27275 56.3633H9.09085V58.182H7.27275V56.3633Z" fill="black"/>
<path d="M9.09085 56.3633H10.9092V58.182H9.09085V56.3633Z" fill="black"/>
<path d="M10.9092 56.3633H12.7273V58.182H10.9092V56.3633Z" fill="black"/>
<path d="M12.7273 56.3633H14.5454V58.182H12.7273V56.3633Z" fill="black"/>
<path d="M14.5454 56.3633H16.3635V58.182H14.5454V56.3633Z" fill="black"/>
<path d="M16.3635 56.3633H18.1819V58.182H16.3635V56.3633Z" fill="black"/>
<path d="M18.1819 56.3633H20V58.182H18.1819V56.3633Z" fill="black"/>
<path d="M20 56.3633H21.8181V58.182H20V56.3633Z" fill="black"/>
<path d="M21.8181 56.3633H23.6365V58.182H21.8181V56.3633Z" fill="black"/>
<path d="M23.6365 56.3633H25.4546V58.182H23.6365V56.3633Z" fill="black"/>
<path d="M25.4546 56.3633H27.2727V58.182H25.4546V56.3633Z" fill="black"/>
<path d="M27.2727 56.3633H29.091V58.182H27.2727V56.3633Z" fill="black"/>
<path d="M29.091 56.3633H30.9091V58.182H29.091V56.3633Z" fill="black"/>
<path d="M30.9091 56.3633H32.7272V58.182H30.9091V56.3633Z" fill="black"/>
<path d="M32.7272 56.3633H34.5453V58.182H32.7272V56.3633Z" fill="black"/>
<path d="M34.5453 56.3633H36.3637V58.182H34.5453V56.3633Z" fill="black"/>
<path d="M36.3637 56.3633H38.1818V58.182H36.3637V56.3633Z" fill="black"/>
<path d="M38.1818 56.3633H39.9999V58.182H38.1818V56.3633Z" fill="black"/>
<path d="M39.9999 56.3633H41.8183V58.182H39.9999V56.3633Z" fill="black"/>
<path d="M41.8183 56.3633H43.6364V58.182H41.8183V56.3633Z" fill="black"/>
<path d="M43.6364 56.3633H45.4545V58.182H43.6364V56.3633Z" fill="black"/>
<path d="M45.4545 56.3633H47.2728V58.182H45.4545V56.3633Z" fill="black"/>
<path d="M47.2728 56.3633H49.0909V58.182H47.2728V56.3633Z" fill="black"/>
<path d="M49.0909 56.3633H50.909V58.182H49.0909V56.3633Z" fill="black"/>
<path d="M50.909 56.3633H52.7271V58.182H50.909V56.3633Z" fill="black"/>
<path d="M52.7271 56.3633H54.5455V58.182H52.7271V56.3633Z" fill="black"/>
<path d="M54.5455 56.3633H56.3636V58.182H54.5455V56.3633Z" fill="black"/>
<path d="M56.3636 56.3633H58.1817V58.182H56.3636V56.3633Z" fill="black"/>
<path d="M58.1817 56.3633H60.0001V58.182H58.1817V56.3633Z" fill="black"/>
<path d="M1.81818 58.182H3.63628V59.9995H1.8181L1.81818 58.182Z" fill="black"/>
<path d="M3.63628 58.182H5.45466V59.9995H3.63628V58.182Z" fill="black"/>
<path d="M5.45466 58.182H7.27275V59.9995H5.45466V58.182Z" fill="black"/>
<path d="M7.27275 58.182H9.09085V59.9995H7.27275V58.182Z" fill="black"/>
<path d="M9.09085 58.182H10.9092V59.9995H9.09085V58.182Z" fill="black"/>
<path d="M10.9092 58.182H12.7273V59.9995H10.9092V58.182Z" fill="black"/>
<path d="M12.7273 58.182H14.5454V59.9995H12.7273V58.182Z" fill="black"/>
<path d="M14.5454 58.182H16.3635V59.9995H14.5454V58.182Z" fill="black"/>
<path d="M16.3635 58.182H18.1819V59.9995H16.3635V58.182Z" fill="black"/>
<path d="M18.1819 58.182H20V59.9995H18.1819V58.182Z" fill="black"/>
<path d="M20 58.182H21.8181V59.9995H20V58.182Z" fill="black"/>
<path d="M21.8181 58.182H23.6365V59.9995H21.8181V58.182Z" fill="black"/>
<path d="M23.6365 58.182H25.4546V59.9995H23.6365V58.182Z" fill="black"/>
<path d="M25.4546 58.182H27.2727V59.9995H25.4546V58.182Z" fill="black"/>
<path d="M27.2727 58.182H29.091V59.9995H27.2727V58.182Z" fill="black"/>
<path d="M29.091 58.182H30.9091V59.9995H29.091V58.182Z" fill="black"/>
<path d="M30.9091 58.182H32.7272V59.9995H30.9091V58.182Z" fill="black"/>
<path d="M32.7272 58.182H34.5453V59.9995H32.7272V58.182Z" fill="black"/>
<path d="M34.5453 58.182H36.3637V59.9995H34.5453V58.182Z" fill="black"/>
<path d="M36.3637 58.182H38.1818V59.9995H36.3637V58.182Z" fill="black"/>
<path d="M38.1818 58.182H39.9999V59.9995H38.1818V58.182Z" fill="black"/>
<path d="M39.9999 58.182H41.8183V59.9995H39.9999V58.182Z" fill="black"/>
<path d="M41.8183 58.182H43.6364V59.9995H41.8183V58.182Z" fill="black"/>
<path d="M43.6364 58.182H45.4545V59.9995H43.6364V58.182Z" fill="black"/>
<path d="M45.4545 58.182H47.2728V59.9995H45.4545V58.182Z" fill="black"/>
<path d="M47.2728 58.182H49.0909V59.9995H47.2728V58.182Z" fill="black"/>
<path d="M49.0909 58.182H50.909V59.9995H49.0909V58.182Z" fill="black"/>
<path d="M50.909 58.182H52.7271V59.9995H50.909V58.182Z" fill="black"/>
<path d="M52.7271 58.182H54.5455V59.9995H52.7271V58.182Z" fill="black"/>
<path d="M54.5455 58.182H56.3636V59.9995H54.5455V58.182Z" fill="black"/>
<path d="M56.3636 58.182H58.1817V59.9995H56.3636V58.182Z" fill="black"/>
</svg>
