<svg width="49" height="55" viewBox="0 0 49 55" fill="none" xmlns="http://www.w3.org/2000/svg">
<rect x="8.64709" width="2.88235" height="2.88235" fill="black"/>
<rect x="11.5294" width="2.88235" height="2.88235" fill="black"/>
<rect x="14.4117" width="2.88235" height="2.88235" fill="black"/>
<rect x="17.2941" width="2.88235" height="2.88235" fill="black"/>
<rect x="31.7059" width="2.88235" height="2.88235" fill="black"/>
<rect x="34.5883" width="2.88235" height="2.88235" fill="black"/>
<rect x="37.4706" width="2.88235" height="2.88235" fill="black"/>
<rect x="40.3529" width="2.88235" height="2.88235" fill="black"/>
<rect x="8.64709" y="2.88232" width="2.88235" height="2.88235" fill="black"/>
<rect x="11.5294" y="2.88232" width="2.88235" height="2.88235" fill="black"/>
<rect x="14.4117" y="2.88232" width="2.88235" height="2.88235" fill="black"/>
<rect x="17.2941" y="2.88232" width="2.88235" height="2.88235" fill="black"/>
<rect x="20.1765" y="2.88232" width="2.88235" height="2.88235" fill="black"/>
<rect x="31.7059" y="2.88232" width="2.88235" height="2.88235" fill="black"/>
<rect x="34.5883" y="2.88232" width="2.88235" height="2.88235" fill="black"/>
<rect x="37.4706" y="2.88232" width="2.88235" height="2.88235" fill="black"/>
<rect x="40.3529" y="2.88232" width="2.88235" height="2.88235" fill="black"/>
<rect x="43.2354" y="2.88232" width="2.88235" height="2.88235" fill="black"/>
<rect x="8.64709" y="5.76471" width="2.88235" height="2.88235" fill="black"/>
<rect x="11.5294" y="5.76471" width="2.88235" height="2.88235" fill="black"/>
<rect x="14.4117" y="5.76471" width="2.88235" height="2.88235" fill="black"/>
<rect x="17.2941" y="5.76471" width="2.88235" height="2.88235" fill="black"/>
<rect x="20.1765" y="5.76471" width="2.88235" height="2.88235" fill="black"/>
<rect x="28.8235" y="5.76471" width="2.88235" height="2.88235" fill="black"/>
<rect x="31.7059" y="5.76471" width="2.88235" height="2.88235" fill="black"/>
<rect x="34.5883" y="5.76471" width="2.88235" height="2.88235" fill="black"/>
<rect x="37.4706" y="5.76471" width="2.88235" height="2.88235" fill="black"/>
<rect x="40.3529" y="5.76471" width="2.88235" height="2.88235" fill="black"/>
<rect x="43.2354" y="5.76471" width="2.88235" height="2.88235" fill="black"/>
<rect x="8.64709" y="8.64703" width="2.88235" height="2.88235" fill="black"/>
<rect x="11.5294" y="8.64703" width="2.88235" height="2.88235" fill="black"/>
<rect x="14.4117" y="8.64703" width="2.88235" height="2.88235" fill="black"/>
<rect x="17.2941" y="8.64703" width="2.88235" height="2.88235" fill="black"/>
<rect x="31.7059" y="8.64703" width="2.88235" height="2.88235" fill="black"/>
<rect x="34.5883" y="8.64703" width="2.88235" height="2.88235" fill="black"/>
<rect x="37.4706" y="8.64703" width="2.88235" height="2.88235" fill="black"/>
<rect x="40.3529" y="8.64703" width="2.88235" height="2.88235" fill="black"/>
<rect x="11.5294" y="11.5294" width="2.88235" height="2.88235" fill="black"/>
<rect x="14.4117" y="11.5294" width="2.88235" height="2.88235" fill="black"/>
<rect x="5.76465" y="20.1765" width="2.88235" height="2.88235" fill="black"/>
<rect x="8.64709" y="20.1765" width="2.88235" height="2.88235" fill="black"/>
<rect x="11.5294" y="20.1765" width="2.88235" height="2.88235" fill="black"/>
<rect x="14.4117" y="20.1765" width="2.88235" height="2.88235" fill="black"/>
<rect x="17.2941" y="20.1765" width="2.88235" height="2.88235" fill="black"/>
<rect x="20.1765" y="20.1765" width="2.88235" height="2.88235" fill="black"/>
<rect x="23.0588" y="20.1765" width="2.88235" height="2.88235" fill="black"/>
<rect x="25.9412" y="20.1765" width="2.88235" height="2.88235" fill="black"/>
<rect x="28.8235" y="20.1765" width="2.88235" height="2.88235" fill="black"/>
<rect x="31.7059" y="20.1765" width="2.88235" height="2.88235" fill="black"/>
<rect x="34.5883" y="20.1765" width="2.88235" height="2.88235" fill="black"/>
<rect x="37.4706" y="20.1765" width="2.88235" height="2.88235" fill="black"/>
<rect x="40.3529" y="20.1765" width="2.88235" height="2.88235" fill="black"/>
<rect x="43.2354" y="20.1765" width="2.88235" height="2.88235" fill="black"/>
<rect x="2.88232" y="23.0588" width="2.88235" height="2.88235" fill="black"/>
<rect x="5.76465" y="23.0588" width="2.88235" height="2.88235" fill="black"/>
<rect x="8.64709" y="23.0588" width="2.88235" height="2.88235" fill="black"/>
<rect x="11.5294" y="23.0588" width="2.88235" height="2.88235" fill="black"/>
<rect x="14.4117" y="23.0588" width="2.88235" height="2.88235" fill="black"/>
<rect x="17.2941" y="23.0588" width="2.88235" height="2.88235" fill="black"/>
<rect x="20.1765" y="23.0588" width="2.88235" height="2.88235" fill="black"/>
<rect x="23.0588" y="23.0588" width="2.88235" height="2.88235" fill="black"/>
<rect x="25.9412" y="23.0588" width="2.88235" height="2.88235" fill="black"/>
<rect x="28.8235" y="23.0588" width="2.88235" height="2.88235" fill="black"/>
<rect x="31.7059" y="23.0588" width="2.88235" height="2.88235" fill="black"/>
<rect x="34.5883" y="23.0588" width="2.88235" height="2.88235" fill="black"/>
<rect x="37.4706" y="23.0588" width="2.88235" height="2.88235" fill="black"/>
<rect x="40.3529" y="23.0588" width="2.88235" height="2.88235" fill="black"/>
<rect x="43.2354" y="23.0588" width="2.88235" height="2.88235" fill="black"/>
<rect x="46.1177" y="23.0588" width="2.88235" height="2.88235" fill="black"/>
<rect y="25.9412" width="2.88235" height="2.88235" fill="black"/>
<rect x="2.88232" y="25.9412" width="2.88235" height="2.88235" fill="black"/>
<rect x="5.76465" y="25.9412" width="2.88235" height="2.88235" fill="black"/>
<rect x="8.64709" y="25.9412" width="2.88235" height="2.88235" fill="black"/>
<rect x="11.5294" y="25.9412" width="2.88235" height="2.88235" fill="black"/>
<rect x="14.4117" y="25.9412" width="2.88235" height="2.88235" fill="black"/>
<rect x="17.2941" y="25.9412" width="2.88235" height="2.88235" fill="black"/>
<rect x="20.1765" y="25.9412" width="2.88235" height="2.88235" fill="black"/>
<rect x="23.0588" y="25.9412" width="2.88235" height="2.88235" fill="black"/>
<rect x="25.9412" y="25.9412" width="2.88235" height="2.88235" fill="black"/>
<rect x="28.8235" y="25.9412" width="2.88235" height="2.88235" fill="black"/>
<rect x="31.7059" y="25.9412" width="2.88235" height="2.88235" fill="black"/>
<rect x="34.5883" y="25.9412" width="2.88235" height="2.88235" fill="black"/>
<rect x="37.4706" y="25.9412" width="2.88235" height="2.88235" fill="black"/>
<rect x="40.3529" y="25.9412" width="2.88235" height="2.88235" fill="black"/>
<rect x="43.2354" y="25.9412" width="2.88235" height="2.88235" fill="black"/>
<rect x="46.1177" y="25.9412" width="2.88235" height="2.88235" fill="black"/>
<rect y="28.8235" width="2.88235" height="2.88235" fill="black"/>
<rect x="2.88232" y="28.8235" width="2.88235" height="2.88235" fill="black"/>
<rect x="5.76465" y="28.8235" width="2.88235" height="2.88235" fill="black"/>
<rect x="37.4706" y="28.8235" width="2.88235" height="2.88235" fill="black"/>
<rect x="40.3529" y="28.8235" width="2.88235" height="2.88235" fill="black"/>
<rect x="43.2354" y="28.8235" width="2.88235" height="2.88235" fill="black"/>
<rect y="31.7059" width="2.88235" height="2.88235" fill="black"/>
<rect x="2.88232" y="31.7059" width="2.88235" height="2.88235" fill="black"/>
<rect x="5.76465" y="31.7059" width="2.88235" height="2.88235" fill="black"/>
<rect x="37.4706" y="31.7059" width="2.88235" height="2.88235" fill="black"/>
<rect x="40.3529" y="31.7059" width="2.88235" height="2.88235" fill="black"/>
<rect x="43.2354" y="31.7059" width="2.88235" height="2.88235" fill="black"/>
<rect y="34.5883" width="2.88235" height="2.88235" fill="black"/>
<rect x="2.88232" y="34.5883" width="2.88235" height="2.88235" fill="black"/>
<rect x="5.76465" y="34.5883" width="2.88235" height="2.88235" fill="black"/>
<rect x="34.5883" y="34.5883" width="2.88235" height="2.88235" fill="black"/>
<rect x="37.4706" y="34.5883" width="2.88235" height="2.88235" fill="black"/>
<rect x="40.3529" y="34.5883" width="2.88235" height="2.88235" fill="black"/>
<rect x="43.2354" y="34.5883" width="2.88235" height="2.88235" fill="black"/>
<rect x="2.88232" y="37.4706" width="2.88235" height="2.88235" fill="black"/>
<rect x="5.76465" y="37.4706" width="2.88235" height="2.88235" fill="black"/>
<rect x="31.7059" y="37.4706" width="2.88235" height="2.88235" fill="black"/>
<rect x="34.5883" y="37.4706" width="2.88235" height="2.88235" fill="black"/>
<rect x="37.4706" y="37.4706" width="2.88235" height="2.88235" fill="black"/>
<rect x="40.3529" y="37.4706" width="2.88235" height="2.88235" fill="black"/>
<rect x="2.88232" y="40.353" width="2.88235" height="2.88235" fill="black"/>
<rect x="5.76465" y="40.353" width="2.88235" height="2.88235" fill="black"/>
<rect x="8.64709" y="40.353" width="2.88235" height="2.88235" fill="black"/>
<rect x="28.8235" y="40.353" width="2.88235" height="2.88235" fill="black"/>
<rect x="31.7059" y="40.353" width="2.88235" height="2.88235" fill="black"/>
<rect x="34.5883" y="40.353" width="2.88235" height="2.88235" fill="black"/>
<rect x="37.4706" y="40.353" width="2.88235" height="2.88235" fill="black"/>
<rect x="2.88232" y="43.2353" width="2.88235" height="2.88235" fill="black"/>
<rect x="5.76465" y="43.2353" width="2.88235" height="2.88235" fill="black"/>
<rect x="8.64709" y="43.2353" width="2.88235" height="2.88235" fill="black"/>
<rect x="11.5294" y="43.2353" width="2.88235" height="2.88235" fill="black"/>
<rect x="25.9412" y="43.2353" width="2.88235" height="2.88235" fill="black"/>
<rect x="28.8235" y="43.2353" width="2.88235" height="2.88235" fill="black"/>
<rect x="31.7059" y="43.2353" width="2.88235" height="2.88235" fill="black"/>
<rect x="34.5883" y="43.2353" width="2.88235" height="2.88235" fill="black"/>
<rect x="37.4706" y="43.2353" width="2.88235" height="2.88235" fill="black"/>
<rect x="5.76465" y="46.1177" width="2.88235" height="2.88235" fill="black"/>
<rect x="8.64709" y="46.1177" width="2.88235" height="2.88235" fill="black"/>
<rect x="11.5294" y="46.1177" width="2.88235" height="2.88235" fill="black"/>
<rect x="14.4117" y="46.1177" width="2.88235" height="2.88235" fill="black"/>
<rect x="17.2941" y="46.1177" width="2.88235" height="2.88235" fill="black"/>
<rect x="20.1765" y="46.1177" width="2.88235" height="2.88235" fill="black"/>
<rect x="23.0588" y="46.1177" width="2.88235" height="2.88235" fill="black"/>
<rect x="25.9412" y="46.1177" width="2.88235" height="2.88235" fill="black"/>
<rect x="28.8235" y="46.1177" width="2.88235" height="2.88235" fill="black"/>
<rect x="31.7059" y="46.1177" width="2.88235" height="2.88235" fill="black"/>
<rect x="5.76465" y="49" width="2.88235" height="2.88235" fill="black"/>
<rect x="8.64709" y="49" width="2.88235" height="2.88235" fill="black"/>
<rect x="11.5294" y="49" width="2.88235" height="2.88235" fill="black"/>
<rect x="14.4117" y="49" width="2.88235" height="2.88235" fill="black"/>
<rect x="17.2941" y="49" width="2.88235" height="2.88235" fill="black"/>
<rect x="20.1765" y="49" width="2.88235" height="2.88235" fill="black"/>
<rect x="23.0588" y="49" width="2.88235" height="2.88235" fill="black"/>
<rect x="25.9412" y="49" width="2.88235" height="2.88235" fill="black"/>
<rect x="28.8235" y="49" width="2.88235" height="2.88235" fill="black"/>
<rect x="11.5294" y="51.8823" width="2.88235" height="2.88235" fill="black"/>
<rect x="14.4117" y="51.8823" width="2.88235" height="2.88235" fill="black"/>
<rect x="17.2941" y="51.8823" width="2.88235" height="2.88235" fill="black"/>
<rect x="20.1765" y="51.8823" width="2.88235" height="2.88235" fill="black"/>
<rect x="23.0588" y="51.8823" width="2.88235" height="2.88235" fill="black"/>
<rect x="25.9412" y="51.8823" width="2.88235" height="2.88235" fill="black"/>
<rect x="8.64709" width="2.88235" height="2.88235" fill="black"/>
<rect x="11.5294" width="2.88235" height="2.88235" fill="black"/>
<rect x="14.4117" width="2.88235" height="2.88235" fill="black"/>
<rect x="17.2941" width="2.88235" height="2.88235" fill="black"/>
<rect x="31.7059" width="2.88235" height="2.88235" fill="black"/>
<rect x="34.5883" width="2.88235" height="2.88235" fill="black"/>
<rect x="37.4706" width="2.88235" height="2.88235" fill="black"/>
<rect x="40.3529" width="2.88235" height="2.88235" fill="black"/>
<rect x="8.64709" y="2.88232" width="2.88235" height="2.88235" fill="black"/>
<rect x="11.5294" y="2.88232" width="2.88235" height="2.88235" fill="black"/>
<rect x="14.4117" y="2.88232" width="2.88235" height="2.88235" fill="black"/>
<rect x="17.2941" y="2.88232" width="2.88235" height="2.88235" fill="black"/>
<rect x="20.1765" y="2.88232" width="2.88235" height="2.88235" fill="black"/>
<rect x="31.7059" y="2.88232" width="2.88235" height="2.88235" fill="black"/>
<rect x="34.5883" y="2.88232" width="2.88235" height="2.88235" fill="black"/>
<rect x="37.4706" y="2.88232" width="2.88235" height="2.88235" fill="black"/>
<rect x="40.3529" y="2.88232" width="2.88235" height="2.88235" fill="black"/>
<rect x="43.2354" y="2.88232" width="2.88235" height="2.88235" fill="black"/>
<rect x="8.64709" y="5.76471" width="2.88235" height="2.88235" fill="black"/>
<rect x="11.5294" y="5.76471" width="2.88235" height="2.88235" fill="black"/>
<rect x="14.4117" y="5.76471" width="2.88235" height="2.88235" fill="black"/>
<rect x="17.2941" y="5.76471" width="2.88235" height="2.88235" fill="black"/>
<rect x="20.1765" y="5.76471" width="2.88235" height="2.88235" fill="black"/>
<rect x="28.8235" y="5.76471" width="2.88235" height="2.88235" fill="black"/>
<rect x="31.7059" y="5.76471" width="2.88235" height="2.88235" fill="black"/>
<rect x="34.5883" y="5.76471" width="2.88235" height="2.88235" fill="black"/>
<rect x="37.4706" y="5.76471" width="2.88235" height="2.88235" fill="black"/>
<rect x="40.3529" y="5.76471" width="2.88235" height="2.88235" fill="black"/>
<rect x="43.2354" y="5.76471" width="2.88235" height="2.88235" fill="black"/>
<rect x="8.64709" y="8.64703" width="2.88235" height="2.88235" fill="black"/>
<rect x="11.5294" y="8.64703" width="2.88235" height="2.88235" fill="black"/>
<rect x="14.4117" y="8.64703" width="2.88235" height="2.88235" fill="black"/>
<rect x="17.2941" y="8.64703" width="2.88235" height="2.88235" fill="black"/>
<rect x="31.7059" y="8.64703" width="2.88235" height="2.88235" fill="black"/>
<rect x="34.5883" y="8.64703" width="2.88235" height="2.88235" fill="black"/>
<rect x="37.4706" y="8.64703" width="2.88235" height="2.88235" fill="black"/>
<rect x="40.3529" y="8.64703" width="2.88235" height="2.88235" fill="black"/>
<rect x="11.5294" y="11.5294" width="2.88235" height="2.88235" fill="black"/>
<rect x="14.4117" y="11.5294" width="2.88235" height="2.88235" fill="black"/>
<rect x="5.76465" y="20.1765" width="2.88235" height="2.88235" fill="black"/>
<rect x="8.64709" y="20.1765" width="2.88235" height="2.88235" fill="black"/>
<rect x="11.5294" y="20.1765" width="2.88235" height="2.88235" fill="black"/>
<rect x="14.4117" y="20.1765" width="2.88235" height="2.88235" fill="black"/>
<rect x="17.2941" y="20.1765" width="2.88235" height="2.88235" fill="black"/>
<rect x="20.1765" y="20.1765" width="2.88235" height="2.88235" fill="black"/>
<rect x="23.0588" y="20.1765" width="2.88235" height="2.88235" fill="black"/>
<rect x="25.9412" y="20.1765" width="2.88235" height="2.88235" fill="black"/>
<rect x="28.8235" y="20.1765" width="2.88235" height="2.88235" fill="black"/>
<rect x="31.7059" y="20.1765" width="2.88235" height="2.88235" fill="black"/>
<rect x="34.5883" y="20.1765" width="2.88235" height="2.88235" fill="black"/>
<rect x="37.4706" y="20.1765" width="2.88235" height="2.88235" fill="black"/>
<rect x="40.3529" y="20.1765" width="2.88235" height="2.88235" fill="black"/>
<rect x="43.2354" y="20.1765" width="2.88235" height="2.88235" fill="black"/>
<rect x="2.88232" y="23.0588" width="2.88235" height="2.88235" fill="black"/>
<rect x="5.76465" y="23.0588" width="2.88235" height="2.88235" fill="black"/>
<rect x="8.64709" y="23.0588" width="2.88235" height="2.88235" fill="black"/>
<rect x="11.5294" y="23.0588" width="2.88235" height="2.88235" fill="black"/>
<rect x="14.4117" y="23.0588" width="2.88235" height="2.88235" fill="black"/>
<rect x="17.2941" y="23.0588" width="2.88235" height="2.88235" fill="black"/>
<rect x="20.1765" y="23.0588" width="2.88235" height="2.88235" fill="black"/>
<rect x="23.0588" y="23.0588" width="2.88235" height="2.88235" fill="black"/>
<rect x="25.9412" y="23.0588" width="2.88235" height="2.88235" fill="black"/>
<rect x="28.8235" y="23.0588" width="2.88235" height="2.88235" fill="black"/>
<rect x="31.7059" y="23.0588" width="2.88235" height="2.88235" fill="black"/>
<rect x="34.5883" y="23.0588" width="2.88235" height="2.88235" fill="black"/>
<rect x="37.4706" y="23.0588" width="2.88235" height="2.88235" fill="black"/>
<rect x="40.3529" y="23.0588" width="2.88235" height="2.88235" fill="black"/>
<rect x="43.2354" y="23.0588" width="2.88235" height="2.88235" fill="black"/>
<rect x="46.1177" y="23.0588" width="2.88235" height="2.88235" fill="black"/>
<rect y="25.9412" width="2.88235" height="2.88235" fill="black"/>
<rect x="2.88232" y="25.9412" width="2.88235" height="2.88235" fill="black"/>
<rect x="5.76465" y="25.9412" width="2.88235" height="2.88235" fill="black"/>
<rect x="8.64709" y="25.9412" width="2.88235" height="2.88235" fill="black"/>
<rect x="11.5294" y="25.9412" width="2.88235" height="2.88235" fill="black"/>
<rect x="14.4117" y="25.9412" width="2.88235" height="2.88235" fill="black"/>
<rect x="17.2941" y="25.9412" width="2.88235" height="2.88235" fill="black"/>
<rect x="20.1765" y="25.9412" width="2.88235" height="2.88235" fill="black"/>
<rect x="23.0588" y="25.9412" width="2.88235" height="2.88235" fill="black"/>
<rect x="25.9412" y="25.9412" width="2.88235" height="2.88235" fill="black"/>
<rect x="28.8235" y="25.9412" width="2.88235" height="2.88235" fill="black"/>
<rect x="31.7059" y="25.9412" width="2.88235" height="2.88235" fill="black"/>
<rect x="34.5883" y="25.9412" width="2.88235" height="2.88235" fill="black"/>
<rect x="37.4706" y="25.9412" width="2.88235" height="2.88235" fill="black"/>
<rect x="40.3529" y="25.9412" width="2.88235" height="2.88235" fill="black"/>
<rect x="43.2354" y="25.9412" width="2.88235" height="2.88235" fill="black"/>
<rect x="46.1177" y="25.9412" width="2.88235" height="2.88235" fill="black"/>
<rect y="28.8235" width="2.88235" height="2.88235" fill="black"/>
<rect x="2.88232" y="28.8235" width="2.88235" height="2.88235" fill="black"/>
<rect x="5.76465" y="28.8235" width="2.88235" height="2.88235" fill="black"/>
<rect x="37.4706" y="28.8235" width="2.88235" height="2.88235" fill="black"/>
<rect x="40.3529" y="28.8235" width="2.88235" height="2.88235" fill="black"/>
<rect x="43.2354" y="28.8235" width="2.88235" height="2.88235" fill="black"/>
<rect y="31.7059" width="2.88235" height="2.88235" fill="black"/>
<rect x="2.88232" y="31.7059" width="2.88235" height="2.88235" fill="black"/>
<rect x="5.76465" y="31.7059" width="2.88235" height="2.88235" fill="black"/>
<rect x="37.4706" y="31.7059" width="2.88235" height="2.88235" fill="black"/>
<rect x="40.3529" y="31.7059" width="2.88235" height="2.88235" fill="black"/>
<rect x="43.2354" y="31.7059" width="2.88235" height="2.88235" fill="black"/>
<rect y="34.5883" width="2.88235" height="2.88235" fill="black"/>
<rect x="2.88232" y="34.5883" width="2.88235" height="2.88235" fill="black"/>
<rect x="5.76465" y="34.5883" width="2.88235" height="2.88235" fill="black"/>
<rect x="34.5883" y="34.5883" width="2.88235" height="2.88235" fill="black"/>
<rect x="37.4706" y="34.5883" width="2.88235" height="2.88235" fill="black"/>
<rect x="40.3529" y="34.5883" width="2.88235" height="2.88235" fill="black"/>
<rect x="43.2354" y="34.5883" width="2.88235" height="2.88235" fill="black"/>
<rect x="2.88232" y="37.4706" width="2.88235" height="2.88235" fill="black"/>
<rect x="5.76465" y="37.4706" width="2.88235" height="2.88235" fill="black"/>
<rect x="31.7059" y="37.4706" width="2.88235" height="2.88235" fill="black"/>
<rect x="34.5883" y="37.4706" width="2.88235" height="2.88235" fill="black"/>
<rect x="37.4706" y="37.4706" width="2.88235" height="2.88235" fill="black"/>
<rect x="40.3529" y="37.4706" width="2.88235" height="2.88235" fill="black"/>
<rect x="2.88232" y="40.353" width="2.88235" height="2.88235" fill="black"/>
<rect x="5.76465" y="40.353" width="2.88235" height="2.88235" fill="black"/>
<rect x="8.64709" y="40.353" width="2.88235" height="2.88235" fill="black"/>
<rect x="28.8235" y="40.353" width="2.88235" height="2.88235" fill="black"/>
<rect x="31.7059" y="40.353" width="2.88235" height="2.88235" fill="black"/>
<rect x="34.5883" y="40.353" width="2.88235" height="2.88235" fill="black"/>
<rect x="37.4706" y="40.353" width="2.88235" height="2.88235" fill="black"/>
<rect x="2.88232" y="43.2353" width="2.88235" height="2.88235" fill="black"/>
<rect x="5.76465" y="43.2353" width="2.88235" height="2.88235" fill="black"/>
<rect x="8.64709" y="43.2353" width="2.88235" height="2.88235" fill="black"/>
<rect x="11.5294" y="43.2353" width="2.88235" height="2.88235" fill="black"/>
<rect x="25.9412" y="43.2353" width="2.88235" height="2.88235" fill="black"/>
<rect x="28.8235" y="43.2353" width="2.88235" height="2.88235" fill="black"/>
<rect x="31.7059" y="43.2353" width="2.88235" height="2.88235" fill="black"/>
<rect x="34.5883" y="43.2353" width="2.88235" height="2.88235" fill="black"/>
<rect x="37.4706" y="43.2353" width="2.88235" height="2.88235" fill="black"/>
<rect x="5.76465" y="46.1177" width="2.88235" height="2.88235" fill="black"/>
<rect x="8.64709" y="46.1177" width="2.88235" height="2.88235" fill="black"/>
<rect x="11.5294" y="46.1177" width="2.88235" height="2.88235" fill="black"/>
<rect x="14.4117" y="46.1177" width="2.88235" height="2.88235" fill="black"/>
<rect x="17.2941" y="46.1177" width="2.88235" height="2.88235" fill="black"/>
<rect x="20.1765" y="46.1177" width="2.88235" height="2.88235" fill="black"/>
<rect x="23.0588" y="46.1177" width="2.88235" height="2.88235" fill="black"/>
<rect x="25.9412" y="46.1177" width="2.88235" height="2.88235" fill="black"/>
<rect x="28.8235" y="46.1177" width="2.88235" height="2.88235" fill="black"/>
<rect x="31.7059" y="46.1177" width="2.88235" height="2.88235" fill="black"/>
<rect x="5.76465" y="49" width="2.88235" height="2.88235" fill="black"/>
<rect x="8.64709" y="49" width="2.88235" height="2.88235" fill="black"/>
<rect x="11.5294" y="49" width="2.88235" height="2.88235" fill="black"/>
<rect x="14.4117" y="49" width="2.88235" height="2.88235" fill="black"/>
<rect x="17.2941" y="49" width="2.88235" height="2.88235" fill="black"/>
<rect x="20.1765" y="49" width="2.88235" height="2.88235" fill="black"/>
<rect x="23.0588" y="49" width="2.88235" height="2.88235" fill="black"/>
<rect x="25.9412" y="49" width="2.88235" height="2.88235" fill="black"/>
<rect x="28.8235" y="49" width="2.88235" height="2.88235" fill="black"/>
<rect x="11.5294" y="51.8823" width="2.88235" height="2.88235" fill="black"/>
<rect x="14.4117" y="51.8823" width="2.88235" height="2.88235" fill="black"/>
<rect x="17.2941" y="51.8823" width="2.88235" height="2.88235" fill="black"/>
<rect x="20.1765" y="51.8823" width="2.88235" height="2.88235" fill="black"/>
<rect x="23.0588" y="51.8823" width="2.88235" height="2.88235" fill="black"/>
<rect x="25.9412" y="51.8823" width="2.88235" height="2.88235" fill="black"/>
</svg>
