<?xml version="1.0" encoding="UTF-8"?><svg id="Layer_2" xmlns="http://www.w3.org/2000/svg" viewBox="0 0 1080 808.26"><defs><style>.cls-1{fill:#010101;stroke-width:0px;}</style></defs><g id="Layer_1-2"><path class="cls-1" d="m1043.81,36.19v735.88H36.19V36.19h1007.63M1080,0H0v808.26h1080V0h0Z"/><rect class="cls-1" x="468.61" y="426" width="71.39" height="47.78"/><rect class="cls-1" x="372.1" y="378.22" width="96.51" height="47.78"/><rect class="cls-1" x="83.97" y="139.33" width="96.51" height="47.78"/><rect class="cls-1" x="324.32" y="330.44" width="47.78" height="47.78"/><rect class="cls-1" x="276.54" y="282.67" width="47.78" height="47.78"/><rect class="cls-1" x="228.76" y="234.89" width="47.78" height="47.78"/><rect class="cls-1" x="180.48" y="187.11" width="47.78" height="47.78"/><rect class="cls-1" x="36.19" y="91.55" width="47.78" height="47.78"/><rect class="cls-1" x="83.97" y="617.11" width="96.51" height="47.78"/><rect class="cls-1" x="324.32" y="426" width="47.78" height="47.78"/><rect class="cls-1" x="276.54" y="473.78" width="47.78" height="47.78"/><rect class="cls-1" x="228.76" y="521.56" width="47.78" height="47.78"/><rect class="cls-1" x="180.48" y="569.33" width="47.78" height="47.78"/><rect class="cls-1" x="36.19" y="664.89" width="47.78" height="47.78"/><rect class="cls-1" x="540" y="426" width="71.39" height="47.78" transform="translate(1151.39 899.78) rotate(-180)"/><rect class="cls-1" x="611.39" y="378.22" width="96.51" height="47.78" transform="translate(1319.29 804.22) rotate(-180)"/><rect class="cls-1" x="899.52" y="139.33" width="96.51" height="47.78" transform="translate(1895.56 326.44) rotate(-180)"/><rect class="cls-1" x="707.9" y="330.44" width="47.78" height="47.78" transform="translate(1463.58 708.67) rotate(-180)"/><rect class="cls-1" x="755.68" y="282.67" width="47.78" height="47.78" transform="translate(1559.14 613.11) rotate(-180)"/><rect class="cls-1" x="803.46" y="234.89" width="47.78" height="47.78" transform="translate(1654.7 517.55) rotate(-180)"/><rect class="cls-1" x="851.75" y="187.11" width="47.78" height="47.78" transform="translate(1751.27 422) rotate(-180)"/><rect class="cls-1" x="996.03" y="91.55" width="47.78" height="47.78" transform="translate(2039.85 230.89) rotate(-180)"/><rect class="cls-1" x="899.52" y="617.11" width="96.51" height="47.78" transform="translate(1895.56 1282) rotate(-180)"/><rect class="cls-1" x="707.9" y="426" width="47.78" height="47.78" transform="translate(1463.58 899.78) rotate(-180)"/><rect class="cls-1" x="755.68" y="473.78" width="47.78" height="47.78" transform="translate(1559.14 995.33) rotate(-180)"/><rect class="cls-1" x="803.46" y="521.56" width="47.78" height="47.78" transform="translate(1654.7 1090.89) rotate(-180)"/><rect class="cls-1" x="851.75" y="569.33" width="47.78" height="47.78" transform="translate(1751.27 1186.45) rotate(-180)"/><rect class="cls-1" x="996.03" y="664.89" width="47.78" height="47.78" transform="translate(2039.85 1377.56) rotate(-180)"/></g></svg>