<?xml version="1.0" encoding="UTF-8"?><svg id="Layer_2" xmlns="http://www.w3.org/2000/svg" viewBox="0 0 1080 1080"><defs><style>.cls-1{fill:#010101;stroke-width:0px;}</style></defs><g id="Layer_1-2"><polygon class="cls-1" points="798.26 187.83 798.26 234.78 798.26 281.74 845.22 281.74 892.17 281.74 892.17 234.78 892.17 187.83 845.22 187.83 798.26 187.83"/><path class="cls-1" d="m1033.04,187.83v-93.91h-46.96v-46.96h-93.91V0H187.83v46.96h-46.96v46.96h-46.96v46.96h-46.96v93.91H0v610.43h46.96v93.91h46.96v46.96h46.96v46.96h93.92v46.96h610.43v-46.96h93.91v-46.96h46.96v-46.96h46.96v-46.96h46.96V187.83h-46.96Zm-46.96,93.91v563.48h-46.96v93.91h-93.91v46.96H234.78v-46.96h-46.96v-46.96h-46.96v-46.96h-46.96V234.78h46.96v-93.91h93.92v-46.96h610.43v46.96h93.91v93.91h46.96v46.96Z"/><path class="cls-1" d="m751.31,328.69h-46.96v-46.95h-328.7v46.95h-46.96v46.96h-46.96v281.74h46.96v93.91h93.91v46.96h281.74v-46.96h46.96v-46.96h46.96v-328.7h-46.96v-46.96Zm-46.96,140.87v187.83h-46.96v46.96h-234.78v-46.96h-46.96v-234.78h46.96v-46.96h234.78v46.96h46.96v46.96Z"/></g></svg>