<?xml version="1.0" encoding="UTF-8"?><svg id="Layer_2" xmlns="http://www.w3.org/2000/svg" viewBox="0 0 966.22 1080"><defs><style>.cls-1{fill:#010101;stroke-width:0px;}</style></defs><g id="Layer_1-2"><polygon class="cls-1" points="454.72 56.79 454.72 170.57 397.93 170.57 397.93 227.36 340.94 227.36 340.94 284.15 227.36 284.15 227.36 227.36 170.57 227.36 170.57 0 397.93 0 397.93 56.79 454.72 56.79"/><polygon class="cls-1" points="909.43 56.79 909.43 170.57 852.44 170.57 852.44 227.36 625.28 227.36 625.28 170.57 568.3 170.57 568.3 113.78 625.28 113.78 625.28 0 852.44 0 852.44 56.79 909.43 56.79"/><path class="cls-1" d="m909.43,454.72v-56.79H113.58v56.79h-56.79v56.79H0v227.36h56.79v170.57h56.79v113.58h113.78v56.99h340.94v-56.99h56.99v-56.79h56.79v-56.79h113.58v-113.78h56.79v-56.79h56.99v-170.37h56.79v-113.78h-56.79Zm-170.57,227.36h-56.79v56.79h-56.79v56.79h-56.99v56.99h-56.79v56.79h-227.36v-56.79h-56.79v-56.99h-56.79v-227.16h568.3v113.58Z"/></g></svg>