<?xml version="1.0" encoding="UTF-8"?><svg id="Layer_1" xmlns="http://www.w3.org/2000/svg" viewBox="0 0 3840 3840"><defs><style>.cls-1{fill:#2c86c7;stroke-width:0px;}</style></defs><g id="blue"><path id="halo" class="cls-1" d="m1920,901.78c-343.39,0-621.72,88.14-621.72,196.87s278.33,196.82,621.72,196.82,621.72-88.14,621.72-196.82-278.33-196.87-621.72-196.87Zm0,228.03c-591.63,0-591.63-183.28,0-183.28s591.58,183.28,0,183.28Z"/><path id="shield" class="cls-1" d="m1275.06,2271.74l101.09,772.38,543.86,426.36,543.86-426.36,101.09-772.38h-1289.89Zm978.84,282.71h-84.58v505.97h-134.49l-260.36-447.4v341.1h75.91v101.92h-264.26v-101.92h80.68v-399.68h-80.68v-101.92h253.55l221.99,376.35v-274.44h-78.49v-101.92h270.74v101.92Z"/><g id="wing_r"><path class="cls-1" d="m2588.06,2725.01c252.59,185.34,21.23,268.65,267.19,524.43-132.37-45.77-384.1-142.61-309.61-262.35,75.94-122.08,51.91-206.1,42.43-262.08Z"/><path class="cls-1" d="m2693.69,2725.01s141.28,47.02,165.41,364.24c41.65,216.72,416.26,59.83,512.45-45.19-267.2,3.07-480.05-354.33-677.86-319.06Z"/><path class="cls-1" d="m2809,2681.82c301.75-28.08,521.81,568.47,847.35,72.05-246.07,88.63-498.27-224.13-686.48-152.56-81.65,31.05-160.88,80.5-160.88,80.5Z"/><path class="cls-1" d="m3024.32,2535.87c271.34-26.37,633.92,367.9,761.33-169.78-223.78,125.98-478.06-97.41-634.18,43.25-100.94,90.94-127.15,126.53-127.15,126.53Z"/><path class="cls-1" d="m2990.33,1474.25s-39.87-198.28,84.34-445.48c124.21-247.2,27.52-740.27-409.42-865.7,401.67,553.45-373,742.1,325.09,1311.18Z"/><path class="cls-1" d="m3195.84,1714.63s12.06-207.21,148.57-304.5c404.92-288.61,18.86-799.49-170.98-906.41,255.32,485.48-362.94,726.68,22.41,1210.91Z"/><path class="cls-1" d="m3640.5,1104.93c18.65,475.67-432.61,194.46-432.61,951.35,126.77-350.14,888.05,0,432.61-951.35Z"/><path class="cls-1" d="m3835.13,1802.5c-134.26,247.76-483.47,24.69-615.88,394.05-29.53,82.36-47.7,122.79-45.67,123.64,252.07-202.52,719.13,271.9,661.55-517.69Z"/><path class="cls-1" d="m2555.48,2717.34c73.6-129.84,398.34-52.88,398.34-492.1-230.01,412.89-398.34,318.44-398.34,492.1Z"/><path class="cls-1" d="m2944.29,2522.73c281.9-818.18-348.05-862.17-318.15-1331.4,96.61,223.11,399.1,329.59,479.01,484.51,79.92,154.92,134.83,578.44-160.86,846.89Z"/></g><g id="wing_l"><path class="cls-1" d="m1251.94,2725.01c-252.59,185.34-21.23,268.65-267.19,524.43,132.37-45.77,384.1-142.61,309.61-262.35-75.94-122.08-51.91-206.1-42.43-262.08Z"/><path class="cls-1" d="m1146.31,2725.01s-141.28,47.02-165.41,364.24c-41.65,216.72-416.26,59.83-512.45-45.19,267.2,3.07,480.05-354.33,677.86-319.06Z"/><path class="cls-1" d="m1031,2681.82c-301.75-28.08-521.81,568.47-847.35,72.05,246.07,88.63,498.27-224.13,686.48-152.56,81.65,31.05,160.88,80.5,160.88,80.5Z"/><path class="cls-1" d="m815.68,2535.87c-271.34-26.37-633.92,367.9-761.33-169.78,223.78,125.98,478.06-97.41,634.18,43.25,100.94,90.94,127.15,126.53,127.15,126.53Z"/><path class="cls-1" d="m849.67,1474.25s39.87-198.28-84.34-445.48c-124.21-247.2-27.52-740.27,409.42-865.7-401.67,553.45,373,742.1-325.09,1311.18Z"/><path class="cls-1" d="m644.16,1714.63s-12.06-207.21-148.57-304.5c-404.92-288.61-18.86-799.49,170.98-906.41-255.32,485.48,362.94,726.68-22.41,1210.91Z"/><path class="cls-1" d="m199.5,1104.93c-18.65,475.67,432.61,194.46,432.61,951.35-126.77-350.14-888.05,0-432.61-951.35Z"/><path class="cls-1" d="m4.87,1802.5c134.26,247.76,483.47,24.69,615.88,394.05,29.53,82.36,47.7,122.79,45.67,123.64C414.35,2117.67-52.71,2592.09,4.87,1802.5Z"/><path class="cls-1" d="m1284.52,2717.34c-73.6-129.84-398.34-52.88-398.34-492.1,230.01,412.89,398.34,318.44,398.34,492.1Z"/><path class="cls-1" d="m895.71,2522.73c-281.9-818.18,348.05-862.17,318.15-1331.4-96.61,223.11-399.1,329.59-479.01,484.51-79.92,154.92-134.83,578.44,160.86,846.89Z"/></g><g id="sword_l"><path class="cls-1" d="m1636.51,2152.07c60.14,0,61.08-4.97,137.95,35.25-81.43-87.6-117.33-114.04-157.43-129.01h-134.88c-71.74-36.74-150.73-101.35-74.85-128.52l-226.82-90.86-46.39,90.86c82.36,21.46,136.13,60.25,164.91,128.52h-209.49c-22.78,4.13-34.64,29.54-23.16,49.65l93.8,79.35c18.43-42.99,29.63-35.25,105.08-35.25l60.25,81.56h374.58l-63.54-81.56Z"/><path class="cls-1" d="m2105.29,3394.9l64.46,135.27,417.93,143.86,24.63-312.88c-207.59-130.59-225.81-190.76-225.81-190.76l-281.21,224.51Z"/></g><g id="sword_r"><path class="cls-1" d="m2203.49,2152.07c-60.14,0-61.08-4.97-137.95,35.25,81.43-87.6,117.33-114.04,157.43-129.01h134.88c71.74-36.74,150.73-101.35,74.85-128.52l226.82-90.86,46.39,90.86c-82.36,21.46-136.13,60.25-164.91,128.52h209.49c22.78,4.13,34.64,29.54,23.16,49.65l-93.8,79.35c-18.43-42.99-29.63-35.25-105.08-35.25l-60.25,81.56h-374.58l63.54-81.56Z"/><path class="cls-1" d="m1734.71,3394.9l-64.46,135.27-417.93,143.86-24.63-312.88c207.59-130.59,225.81-190.76,225.81-190.76l281.21,224.51Z"/></g></g></svg>